solid OpenSCAD_Model
  facet normal -1 0 0
    outer loop
      vertex 0 0 0
      vertex 0 0 10
      vertex 0 71 0
    endloop
  endfacet
  facet normal -1 0 0
    outer loop
      vertex 0 71 0
      vertex 0 0 10
      vertex 0 22 10
    endloop
  endfacet
  facet normal -1 0 0
    outer loop
      vertex 0 71 0
      vertex 0 22 10
      vertex 0 22 20
    endloop
  endfacet
  facet normal -1 0 0
    outer loop
      vertex 0 71 0
      vertex 0 22 20
      vertex 0 71 20
    endloop
  endfacet
  facet normal 0 -1 0
    outer loop
      vertex 2 0 2
      vertex 0 0 0
      vertex 49 0 0
    endloop
  endfacet
  facet normal 0 -1 0
    outer loop
      vertex 2 0 2
      vertex 2 0 10
      vertex 0 0 10
    endloop
  endfacet
  facet normal 0 -1 0
    outer loop
      vertex 49 0 10
      vertex 47 0 10
      vertex 49 0 0
    endloop
  endfacet
  facet normal 0 -1 0
    outer loop
      vertex 47 0 10
      vertex 47 0 2
      vertex 49 0 0
    endloop
  endfacet
  facet normal 0 -1 0
    outer loop
      vertex 0 0 10
      vertex 0 0 0
      vertex 2 0 2
    endloop
  endfacet
  facet normal 0 -1 0
    outer loop
      vertex 47 0 2
      vertex 2 0 2
      vertex 49 0 0
    endloop
  endfacet
  facet normal 0 0 -1
    outer loop
      vertex 0 0 0
      vertex 0 71 0
      vertex 49 0 0
    endloop
  endfacet
  facet normal 0 0 -1
    outer loop
      vertex 49 0 0
      vertex 0 71 0
      vertex 49 71 0
    endloop
  endfacet
  facet normal 0 1 0
    outer loop
      vertex 0 71 0
      vertex 0 71 20
      vertex 49 71 0
    endloop
  endfacet
  facet normal 0 1 0
    outer loop
      vertex 49 71 0
      vertex 0 71 20
      vertex 49 71 20
    endloop
  endfacet
  facet normal 0 0 1
    outer loop
      vertex 0 71 20
      vertex 0 22 20
      vertex 2 22 20
    endloop
  endfacet
  facet normal 0 0 1
    outer loop
      vertex 47 69 20
      vertex 0 71 20
      vertex 2 69 20
    endloop
  endfacet
  facet normal 0 0 1
    outer loop
      vertex 2 69 20
      vertex 0 71 20
      vertex 2 22 20
    endloop
  endfacet
  facet normal 0 0 1
    outer loop
      vertex 49 71 20
      vertex 0 71 20
      vertex 47 69 20
    endloop
  endfacet
  facet normal 0 0 1
    outer loop
      vertex 49 22 20
      vertex 47 69 20
      vertex 47 22 20
    endloop
  endfacet
  facet normal 0 0 1
    outer loop
      vertex 49 71 20
      vertex 47 69 20
      vertex 49 22 20
    endloop
  endfacet
  facet normal 0 -1 0
    outer loop
      vertex 0 22 20
      vertex 0 22 10
      vertex 2 22 10
    endloop
  endfacet
  facet normal 0 -1 0
    outer loop
      vertex 2 22 12
      vertex 2 22 20
      vertex 0 22 20
    endloop
  endfacet
  facet normal 0 -1 0
    outer loop
      vertex 2 22 12
      vertex 0 22 20
      vertex 2 22 10
    endloop
  endfacet
  facet normal 0 -1 0
    outer loop
      vertex 49 22 20
      vertex 47 22 20
      vertex 49 22 10
    endloop
  endfacet
  facet normal 0 -1 0
    outer loop
      vertex 47 22 20
      vertex 47 22 12
      vertex 49 22 10
    endloop
  endfacet
  facet normal 0 -1 0
    outer loop
      vertex 47 22 10
      vertex 2 22 12
      vertex 2 22 10
    endloop
  endfacet
  facet normal 0 -1 0
    outer loop
      vertex 47 22 12
      vertex 47 22 10
      vertex 49 22 10
    endloop
  endfacet
  facet normal 0 -1 0
    outer loop
      vertex 47 22 12
      vertex 2 22 12
      vertex 47 22 10
    endloop
  endfacet
  facet normal 0 0 1
    outer loop
      vertex 0 22 10
      vertex 0 0 10
      vertex 2 0 10
    endloop
  endfacet
  facet normal 0 0 1
    outer loop
      vertex 2 22 10
      vertex 0 22 10
      vertex 2 0 10
    endloop
  endfacet
  facet normal 1 0 0
    outer loop
      vertex 2 69 2
      vertex 2 69 10
      vertex 2 22 10
    endloop
  endfacet
  facet normal 1 0 0
    outer loop
      vertex 2 0 2
      vertex 2 69 2
      vertex 2 0 10
    endloop
  endfacet
  facet normal 1 0 0
    outer loop
      vertex 2 0 10
      vertex 2 69 2
      vertex 2 22 10
    endloop
  endfacet
  facet normal 0 0 1
    outer loop
      vertex 47 0 2
      vertex 47 69 2
      vertex 2 69 2
    endloop
  endfacet
  facet normal 0 0 1
    outer loop
      vertex 2 0 2
      vertex 47 0 2
      vertex 2 69 2
    endloop
  endfacet
  facet normal -1 0 0
    outer loop
      vertex 47 69 10
      vertex 47 69 2
      vertex 47 22 10
    endloop
  endfacet
  facet normal -1 0 0
    outer loop
      vertex 47 22 10
      vertex 47 69 2
      vertex 47 0 10
    endloop
  endfacet
  facet normal -1 0 0
    outer loop
      vertex 47 0 10
      vertex 47 69 2
      vertex 47 0 2
    endloop
  endfacet
  facet normal 0 0 1
    outer loop
      vertex 47 22 10
      vertex 47 0 10
      vertex 49 0 10
    endloop
  endfacet
  facet normal 0 0 1
    outer loop
      vertex 49 22 10
      vertex 47 22 10
      vertex 49 0 10
    endloop
  endfacet
  facet normal 1 0 0
    outer loop
      vertex 49 0 10
      vertex 49 0 0
      vertex 49 71 0
    endloop
  endfacet
  facet normal 1 0 0
    outer loop
      vertex 49 22 10
      vertex 49 0 10
      vertex 49 71 0
    endloop
  endfacet
  facet normal 1 0 0
    outer loop
      vertex 49 71 20
      vertex 49 22 10
      vertex 49 71 0
    endloop
  endfacet
  facet normal 1 0 0
    outer loop
      vertex 49 22 20
      vertex 49 22 10
      vertex 49 71 20
    endloop
  endfacet
  facet normal -1 0 0
    outer loop
      vertex 47 69 20
      vertex 47 69 12
      vertex 47 22 20
    endloop
  endfacet
  facet normal -1 0 0
    outer loop
      vertex 47 22 20
      vertex 47 69 12
      vertex 47 22 12
    endloop
  endfacet
  facet normal 0 -1 0
    outer loop
      vertex 47 69 12
      vertex 47 69 20
      vertex 2 69 20
    endloop
  endfacet
  facet normal 0 -1 0
    outer loop
      vertex 2 69 12
      vertex 47 69 12
      vertex 2 69 20
    endloop
  endfacet
  facet normal 1 0 0
    outer loop
      vertex 2 69 12
      vertex 2 69 20
      vertex 2 22 20
    endloop
  endfacet
  facet normal 1 0 0
    outer loop
      vertex 2 22 12
      vertex 2 69 12
      vertex 2 22 20
    endloop
  endfacet
  facet normal 0 0 1
    outer loop
      vertex 47 22 12
      vertex 47 69 12
      vertex 2 69 12
    endloop
  endfacet
  facet normal 0 0 1
    outer loop
      vertex 2 22 12
      vertex 47 22 12
      vertex 2 69 12
    endloop
  endfacet
  facet normal 0 0 -1
    outer loop
      vertex 47 69 10
      vertex 47 22 10
      vertex 2 69 10
    endloop
  endfacet
  facet normal 0 0 -1
    outer loop
      vertex 2 69 10
      vertex 47 22 10
      vertex 2 22 10
    endloop
  endfacet
  facet normal 0 -1 0
    outer loop
      vertex 47 69 2
      vertex 47 69 10
      vertex 2 69 10
    endloop
  endfacet
  facet normal 0 -1 0
    outer loop
      vertex 2 69 2
      vertex 47 69 2
      vertex 2 69 10
    endloop
  endfacet
endsolid OpenSCAD_Model
