solid OpenSCAD_Model
  facet normal -4.47233e-017 0 -1
    outer loop
      vertex -7.88 -7.65895 2.08707e-015
      vertex -7.88 -7.5 2.08707e-015
      vertex -7.82692 -8.50267 2.08469e-015
    endloop
  endfacet
  facet normal -4.47233e-017 0 -1
    outer loop
      vertex -7.82692 -8.50267 2.08469e-015
      vertex -7.88 -7.5 2.08707e-015
      vertex 0.11 -7.5 1.72973e-015
    endloop
  endfacet
  facet normal -4.47233e-017 0 -1
    outer loop
      vertex -7.82692 -8.50267 2.08469e-015
      vertex 0.11 -7.5 1.72973e-015
      vertex 0.11 -15.4842 1.72973e-015
    endloop
  endfacet
  facet normal -4.47233e-017 0 -1
    outer loop
      vertex -7.82692 -8.50267 2.08469e-015
      vertex 0.11 -15.4842 1.72973e-015
      vertex -0.392324 -15.4842 1.75219e-015
    endloop
  endfacet
  facet normal -4.47233e-017 0 -1
    outer loop
      vertex -7.82692 -8.50267 2.08469e-015
      vertex -0.392324 -15.4842 1.75219e-015
      vertex -1.38905 -15.3583 1.79677e-015
    endloop
  endfacet
  facet normal -4.47233e-017 0 -1
    outer loop
      vertex -7.82692 -8.50267 2.08469e-015
      vertex -1.38905 -15.3583 1.79677e-015
      vertex -2.36214 -15.1085 1.84029e-015
    endloop
  endfacet
  facet normal -4.47233e-017 0 -1
    outer loop
      vertex -7.82692 -8.50267 2.08469e-015
      vertex -2.36214 -15.1085 1.84029e-015
      vertex -3.29623 -14.7386 1.88207e-015
    endloop
  endfacet
  facet normal -4.47233e-017 0 -1
    outer loop
      vertex -7.82692 -8.50267 2.08469e-015
      vertex -3.29623 -14.7386 1.88207e-015
      vertex -4.17661 -14.2546 1.92144e-015
    endloop
  endfacet
  facet normal -4.47233e-017 0 -1
    outer loop
      vertex -7.82692 -8.50267 2.08469e-015
      vertex -4.17661 -14.2546 1.92144e-015
      vertex -4.98939 -13.6641 1.95779e-015
    endloop
  endfacet
  facet normal -4.47233e-017 0 -1
    outer loop
      vertex -7.82692 -8.50267 2.08469e-015
      vertex -4.98939 -13.6641 1.95779e-015
      vertex -5.72175 -12.9764 1.99054e-015
    endloop
  endfacet
  facet normal -4.47233e-017 0 -1
    outer loop
      vertex -7.82692 -8.50267 2.08469e-015
      vertex -5.72175 -12.9764 1.99054e-015
      vertex -6.36214 -12.2023 2.01918e-015
    endloop
  endfacet
  facet normal -4.47233e-017 0 -1
    outer loop
      vertex -7.82692 -8.50267 2.08469e-015
      vertex -6.36214 -12.2023 2.01918e-015
      vertex -6.90045 -11.354 2.04326e-015
    endloop
  endfacet
  facet normal -4.47233e-017 0 -1
    outer loop
      vertex -7.82692 -8.50267 2.08469e-015
      vertex -6.90045 -11.354 2.04326e-015
      vertex -7.32821 -10.445 2.06239e-015
    endloop
  endfacet
  facet normal -4.47233e-017 0 -1
    outer loop
      vertex -7.82692 -8.50267 2.08469e-015
      vertex -7.32821 -10.445 2.06239e-015
      vertex -7.63867 -9.48952 2.07627e-015
    endloop
  endfacet
  facet normal -1 0 1.77321e-016
    outer loop
      vertex -7.88 -7.65895 2.08707e-015
      vertex -7.88 -7.65895 2
      vertex -7.88 -7.5 2.08707e-015
    endloop
  endfacet
  facet normal -1 0 1.77321e-016
    outer loop
      vertex -7.88 -7.5 3.50386e-015
      vertex -7.88 -7.65895 2
      vertex -7.88 -7.5 2
    endloop
  endfacet
  facet normal -1 0 1.77321e-016
    outer loop
      vertex -7.88 -7.5 2.08707e-015
      vertex -7.88 -7.65895 2
      vertex -7.88 -7.5 3.50386e-015
    endloop
  endfacet
  facet normal -0.998027 -0.0627901 -4.46351e-017
    outer loop
      vertex -7.88 -7.65895 2.08707e-015
      vertex -7.82692 -8.50267 2.08469e-015
      vertex -7.88 -7.65895 2
    endloop
  endfacet
  facet normal -0.998027 -0.0627901 -4.46351e-017
    outer loop
      vertex -7.88 -7.65895 2
      vertex -7.82692 -8.50267 2.08469e-015
      vertex -7.82692 -8.50267 2
    endloop
  endfacet
  facet normal -0.982287 -0.187382 -4.39312e-017
    outer loop
      vertex -7.82692 -8.50267 2.08469e-015
      vertex -7.63867 -9.48952 2.07627e-015
      vertex -7.82692 -8.50267 2
    endloop
  endfacet
  facet normal -0.982287 -0.187382 -4.39312e-017
    outer loop
      vertex -7.82692 -8.50267 2
      vertex -7.63867 -9.48952 2.07627e-015
      vertex -7.63867 -9.48952 2
    endloop
  endfacet
  facet normal -0.951057 -0.309017 -4.25344e-017
    outer loop
      vertex -7.63867 -9.48952 2.07627e-015
      vertex -7.32821 -10.445 2.06239e-015
      vertex -7.63867 -9.48952 2
    endloop
  endfacet
  facet normal -0.951057 -0.309017 -4.25344e-017
    outer loop
      vertex -7.63867 -9.48952 2
      vertex -7.32821 -10.445 2.06239e-015
      vertex -7.32821 -10.445 2
    endloop
  endfacet
  facet normal -0.904827 -0.42578 -4.04669e-017
    outer loop
      vertex -7.32821 -10.445 2.06239e-015
      vertex -6.90045 -11.354 2.04326e-015
      vertex -7.32821 -10.445 2
    endloop
  endfacet
  facet normal -0.904827 -0.42578 -4.04669e-017
    outer loop
      vertex -7.32821 -10.445 2
      vertex -6.90045 -11.354 2.04326e-015
      vertex -6.90045 -11.354 2
    endloop
  endfacet
  facet normal -0.844328 -0.535826 -3.77612e-017
    outer loop
      vertex -6.90045 -11.354 2.04326e-015
      vertex -6.36214 -12.2023 2.01918e-015
      vertex -6.90045 -11.354 2
    endloop
  endfacet
  facet normal -0.844328 -0.535826 -3.77612e-017
    outer loop
      vertex -6.90045 -11.354 2
      vertex -6.36214 -12.2023 2.01918e-015
      vertex -6.36214 -12.2023 2
    endloop
  endfacet
  facet normal -0.770513 -0.637424 -3.44599e-017
    outer loop
      vertex -6.36214 -12.2023 2.01918e-015
      vertex -5.72175 -12.9764 1.99054e-015
      vertex -6.36214 -12.2023 2
    endloop
  endfacet
  facet normal -0.770513 -0.637424 -3.44599e-017
    outer loop
      vertex -6.36214 -12.2023 2
      vertex -5.72175 -12.9764 1.99054e-015
      vertex -5.72175 -12.9764 2
    endloop
  endfacet
  facet normal -0.684547 -0.728969 -3.06152e-017
    outer loop
      vertex -5.72175 -12.9764 2
      vertex -5.72175 -12.9764 1.99054e-015
      vertex -4.98939 -13.6641 1.95779e-015
    endloop
  endfacet
  facet normal -0.684547 -0.728969 -3.06152e-017
    outer loop
      vertex -4.98939 -13.6641 2
      vertex -5.72175 -12.9764 2
      vertex -4.98939 -13.6641 1.95779e-015
    endloop
  endfacet
  facet normal -0.587785 -0.809017 -2.62877e-017
    outer loop
      vertex -4.98939 -13.6641 2
      vertex -4.98939 -13.6641 1.95779e-015
      vertex -4.17661 -14.2546 1.92144e-015
    endloop
  endfacet
  facet normal -0.587785 -0.809017 -2.62877e-017
    outer loop
      vertex -4.17661 -14.2546 2
      vertex -4.98939 -13.6641 2
      vertex -4.17661 -14.2546 1.92144e-015
    endloop
  endfacet
  facet normal -0.481754 -0.876307 -2.15456e-017
    outer loop
      vertex -4.17661 -14.2546 2
      vertex -4.17661 -14.2546 1.92144e-015
      vertex -3.29623 -14.7386 1.88207e-015
    endloop
  endfacet
  facet normal -0.481754 -0.876307 -2.15456e-017
    outer loop
      vertex -3.29623 -14.7386 2
      vertex -4.17661 -14.2546 2
      vertex -3.29623 -14.7386 1.88207e-015
    endloop
  endfacet
  facet normal -0.368125 -0.929776 -1.64638e-017
    outer loop
      vertex -3.29623 -14.7386 2
      vertex -3.29623 -14.7386 1.88207e-015
      vertex -2.36214 -15.1085 1.84029e-015
    endloop
  endfacet
  facet normal -0.368125 -0.929776 -1.64638e-017
    outer loop
      vertex -2.36214 -15.1085 2
      vertex -3.29623 -14.7386 2
      vertex -2.36214 -15.1085 1.84029e-015
    endloop
  endfacet
  facet normal -0.24869 -0.968583 -1.11223e-017
    outer loop
      vertex -2.36214 -15.1085 2
      vertex -2.36214 -15.1085 1.84029e-015
      vertex -1.38905 -15.3583 1.79677e-015
    endloop
  endfacet
  facet normal -0.24869 -0.968583 -1.11223e-017
    outer loop
      vertex -1.38905 -15.3583 2
      vertex -2.36214 -15.1085 2
      vertex -1.38905 -15.3583 1.79677e-015
    endloop
  endfacet
  facet normal -0.125333 -0.992115 -5.60533e-018
    outer loop
      vertex -1.38905 -15.3583 2
      vertex -1.38905 -15.3583 1.79677e-015
      vertex -0.392324 -15.4842 1.75219e-015
    endloop
  endfacet
  facet normal -0.125333 -0.992115 -5.60533e-018
    outer loop
      vertex -0.392324 -15.4842 2
      vertex -1.38905 -15.3583 2
      vertex -0.392324 -15.4842 1.75219e-015
    endloop
  endfacet
  facet normal 0 -1 0
    outer loop
      vertex -0.392324 -15.4842 2
      vertex -0.392324 -15.4842 1.75219e-015
      vertex 0.11 -15.4842 1.72973e-015
    endloop
  endfacet
  facet normal 0 -1 0
    outer loop
      vertex 0.11 -15.4842 2
      vertex -0.392324 -15.4842 2
      vertex 0.11 -15.4842 1.72973e-015
    endloop
  endfacet
  facet normal -1 0 1.77321e-016
    outer loop
      vertex 0.11 -15.5 1.72973e-015
      vertex 0.11 -15.5 49
      vertex 0.11 -15.4842 1.72973e-015
    endloop
  endfacet
  facet normal -1 0 1.77321e-016
    outer loop
      vertex 0.11 -15.4842 2
      vertex 0.11 -15.5 49
      vertex 0.11 31.5 49
    endloop
  endfacet
  facet normal -1 0 1.77321e-016
    outer loop
      vertex 0.11 -7.5 2
      vertex 0.11 31.5 49
      vertex 0.11 31.5 2
    endloop
  endfacet
  facet normal -1 0 1.77321e-016
    outer loop
      vertex 0.11 -15.4842 1.72973e-015
      vertex 0.11 -15.5 49
      vertex 0.11 -15.4842 2
    endloop
  endfacet
  facet normal -1 0 1.77321e-016
    outer loop
      vertex 0.11 -15.4842 2
      vertex 0.11 31.5 49
      vertex 0.11 -7.5 2
    endloop
  endfacet
  facet normal -2.22045e-016 0 -1
    outer loop
      vertex 6.4 -23.5 3.33067e-016
      vertex 5.9 -33.5 4.44089e-016
      vertex 7.9 33.5 0
    endloop
  endfacet
  facet normal -2.22045e-016 0 -1
    outer loop
      vertex 7.9 33.5 0
      vertex 5.9 -33.5 4.44089e-016
      vertex 5.9 -33.4925 4.44089e-016
    endloop
  endfacet
  facet normal -2.22045e-016 0 -1
    outer loop
      vertex 7.9 33.5 0
      vertex 5.9 -33.4925 4.44089e-016
      vertex 5.9 -29.7 4.44089e-016
    endloop
  endfacet
  facet normal -2.22045e-016 0 -1
    outer loop
      vertex 7.4 23.5 1.11022e-016
      vertex 5.9 -29.7 4.44089e-016
      vertex 2.11 -29.7 1.28564e-015
    endloop
  endfacet
  facet normal -2.22045e-016 0 -1
    outer loop
      vertex 1.61 -9.5 1.39666e-015
      vertex 2.1 -15.5 1.28786e-015
      vertex 0.11 -15.5 1.72973e-015
    endloop
  endfacet
  facet normal -2.22045e-016 0 -1
    outer loop
      vertex 6.4 23.5 3.33067e-016
      vertex 0.11 -7.5 1.72973e-015
      vertex 6.4 27.5 3.33067e-016
    endloop
  endfacet
  facet normal -2.22045e-016 0 -1
    outer loop
      vertex 0.61 -9.5 1.61871e-015
      vertex 0.11 -15.4842 1.72973e-015
      vertex 0.11 -7.5 1.72973e-015
    endloop
  endfacet
  facet normal -2.22045e-016 0 -1
    outer loop
      vertex 6.4 27.5 3.33067e-016
      vertex 0.11 -7.5 1.72973e-015
      vertex -7.88 -7.5 3.50386e-015
    endloop
  endfacet
  facet normal -2.22045e-016 0 -1
    outer loop
      vertex -7.88 -7.5 3.50386e-015
      vertex -7.89 -7.5 3.50608e-015
      vertex 7.9 33.5 0
    endloop
  endfacet
  facet normal -2.22045e-016 0 -1
    outer loop
      vertex 0.61 23.5 1.61871e-015
      vertex -7.89 -7.5 3.50608e-015
      vertex -7.89 31.5 3.50608e-015
    endloop
  endfacet
  facet normal -2.22045e-016 0 -1
    outer loop
      vertex -4.89 32 2.83995e-015
      vertex -7.89 31.5 3.50608e-015
      vertex -7.89 33.5 3.50608e-015
    endloop
  endfacet
  facet normal -2.22045e-016 0 -1
    outer loop
      vertex 7.9 -33.5 0
      vertex 5.9 -33.5 4.44089e-016
      vertex 6.4 -27.5 3.33067e-016
    endloop
  endfacet
  facet normal -2.22045e-016 0 -1
    outer loop
      vertex 1.61 -9.5 1.39666e-015
      vertex 0.11 -15.4842 1.72973e-015
      vertex 0.61 -9.5 1.61871e-015
    endloop
  endfacet
  facet normal -2.22045e-016 0 -1
    outer loop
      vertex 7.9 -33.5 0
      vertex 6.4 -27.5 3.33067e-016
      vertex 7.4 -27.5 1.11022e-016
    endloop
  endfacet
  facet normal -2.22045e-016 0 -1
    outer loop
      vertex 7.9 -33.5 0
      vertex 7.4 -27.5 1.11022e-016
      vertex 7.9 33.5 0
    endloop
  endfacet
  facet normal -2.22045e-016 0 -1
    outer loop
      vertex 7.4 -27.5 1.11022e-016
      vertex 7.4 -23.5 1.11022e-016
      vertex 7.9 33.5 0
    endloop
  endfacet
  facet normal -2.22045e-016 0 -1
    outer loop
      vertex 6.4 -27.5 3.33067e-016
      vertex 5.9 -33.5 4.44089e-016
      vertex 6.4 -23.5 3.33067e-016
    endloop
  endfacet
  facet normal -2.22045e-016 0 -1
    outer loop
      vertex 1.61 -9.5 1.39666e-015
      vertex 0.11 -15.5 1.72973e-015
      vertex 0.11 -15.4842 1.72973e-015
    endloop
  endfacet
  facet normal -2.22045e-016 0 -1
    outer loop
      vertex 0.61 -5.5 1.61871e-015
      vertex 0.61 -9.5 1.61871e-015
      vertex 0.11 -7.5 1.72973e-015
    endloop
  endfacet
  facet normal -2.22045e-016 0 -1
    outer loop
      vertex 7.4 23.5 1.11022e-016
      vertex 2.1 -29.7 1.28786e-015
      vertex 2.1 -15.5 1.28786e-015
    endloop
  endfacet
  facet normal -2.22045e-016 0 -1
    outer loop
      vertex 1.61 27.5 1.39666e-015
      vertex 7.9 33.5 0
      vertex 1.61 23.5 1.39666e-015
    endloop
  endfacet
  facet normal -2.22045e-016 0 -1
    outer loop
      vertex 6.4 23.5 3.33067e-016
      vertex 0.61 -5.5 1.61871e-015
      vertex 0.11 -7.5 1.72973e-015
    endloop
  endfacet
  facet normal -2.22045e-016 0 -1
    outer loop
      vertex 6.4 23.5 3.33067e-016
      vertex 1.61 -5.5 1.39666e-015
      vertex 0.61 -5.5 1.61871e-015
    endloop
  endfacet
  facet normal -2.22045e-016 0 -1
    outer loop
      vertex 7.4 23.5 1.11022e-016
      vertex 2.1 -15.5 1.28786e-015
      vertex 1.61 -9.5 1.39666e-015
    endloop
  endfacet
  facet normal -2.22045e-016 0 -1
    outer loop
      vertex 7.9 33.5 0
      vertex 5.9 -29.7 4.44089e-016
      vertex 7.4 23.5 1.11022e-016
    endloop
  endfacet
  facet normal -2.22045e-016 0 -1
    outer loop
      vertex 6.4 27.5 3.33067e-016
      vertex 7.9 33.5 0
      vertex 7.4 27.5 1.11022e-016
    endloop
  endfacet
  facet normal -2.22045e-016 0 -1
    outer loop
      vertex 7.9 33.5 0
      vertex 7.4 23.5 1.11022e-016
      vertex 7.4 27.5 1.11022e-016
    endloop
  endfacet
  facet normal -2.22045e-016 0 -1
    outer loop
      vertex 7.4 23.5 1.11022e-016
      vertex 1.61 -9.5 1.39666e-015
      vertex 6.4 23.5 3.33067e-016
    endloop
  endfacet
  facet normal -2.22045e-016 0 -1
    outer loop
      vertex 7.9 33.5 0
      vertex 6.4 27.5 3.33067e-016
      vertex -7.88 -7.5 3.50386e-015
    endloop
  endfacet
  facet normal -2.22045e-016 0 -1
    outer loop
      vertex 1.61 23.5 1.39666e-015
      vertex -7.89 -7.5 3.50608e-015
      vertex 0.61 23.5 1.61871e-015
    endloop
  endfacet
  facet normal -2.22045e-016 0 -1
    outer loop
      vertex 0.61 27.5 1.61871e-015
      vertex 0.61 23.5 1.61871e-015
      vertex -7.89 31.5 3.50608e-015
    endloop
  endfacet
  facet normal -2.22045e-016 0 -1
    outer loop
      vertex 7.9 33.5 0
      vertex -7.89 -7.5 3.50608e-015
      vertex 1.61 23.5 1.39666e-015
    endloop
  endfacet
  facet normal -2.22045e-016 0 -1
    outer loop
      vertex -0.89 32 1.95177e-015
      vertex -7.89 31.5 3.50608e-015
      vertex -4.89 32 2.83995e-015
    endloop
  endfacet
  facet normal -2.22045e-016 0 -1
    outer loop
      vertex -0.89 32 1.95177e-015
      vertex 1.61 27.5 1.39666e-015
      vertex -7.89 31.5 3.50608e-015
    endloop
  endfacet
  facet normal -2.22045e-016 0 -1
    outer loop
      vertex 1.61 27.5 1.39666e-015
      vertex 0.61 27.5 1.61871e-015
      vertex -7.89 31.5 3.50608e-015
    endloop
  endfacet
  facet normal -2.22045e-016 0 -1
    outer loop
      vertex -4.89 33 2.83995e-015
      vertex -4.89 32 2.83995e-015
      vertex -7.89 33.5 3.50608e-015
    endloop
  endfacet
  facet normal -2.22045e-016 0 -1
    outer loop
      vertex 7.9 33.5 0
      vertex 1.61 27.5 1.39666e-015
      vertex -0.89 32 1.95177e-015
    endloop
  endfacet
  facet normal -2.22045e-016 0 -1
    outer loop
      vertex -0.89 33 1.95177e-015
      vertex 7.9 33.5 0
      vertex -0.89 32 1.95177e-015
    endloop
  endfacet
  facet normal -2.22045e-016 0 -1
    outer loop
      vertex 7.9 33.5 0
      vertex -0.89 33 1.95177e-015
      vertex -7.89 33.5 3.50608e-015
    endloop
  endfacet
  facet normal -2.22045e-016 0 -1
    outer loop
      vertex -0.89 33 1.95177e-015
      vertex -4.89 33 2.83995e-015
      vertex -7.89 33.5 3.50608e-015
    endloop
  endfacet
  facet normal -2.22045e-016 0 -1
    outer loop
      vertex 6.4 -23.5 3.33067e-016
      vertex 7.9 33.5 0
      vertex 7.4 -23.5 1.11022e-016
    endloop
  endfacet
  facet normal -2.22045e-016 0 -1
    outer loop
      vertex 7.4 23.5 1.11022e-016
      vertex 2.11 -29.7 1.28564e-015
      vertex 2.1 -29.7 1.28786e-015
    endloop
  endfacet
  facet normal -2.22045e-016 0 -1
    outer loop
      vertex 1.61 -5.5 1.39666e-015
      vertex 6.4 23.5 3.33067e-016
      vertex 1.61 -9.5 1.39666e-015
    endloop
  endfacet
  facet normal 0 1 0
    outer loop
      vertex -7.88 -7.5 3.50386e-015
      vertex 0.11 -7.5 1.72973e-015
      vertex -7.88 -7.5 2.08707e-015
    endloop
  endfacet
  facet normal 0 -1 0
    outer loop
      vertex -7.89 -7.5 3.50608e-015
      vertex -7.88 -7.5 3.50386e-015
      vertex -7.88 -7.5 2
    endloop
  endfacet
  facet normal 0 -1 0
    outer loop
      vertex -7.89 -7.5 2
      vertex -7.89 -7.5 3.50608e-015
      vertex -7.88 -7.5 2
    endloop
  endfacet
  facet normal 0 -1 0
    outer loop
      vertex 0.11 -7.5 2
      vertex -7.89 -7.5 2
      vertex -7.88 -7.5 2
    endloop
  endfacet
  facet normal 4.47233e-017 0 1
    outer loop
      vertex -7.88 -7.5 2
      vertex -7.88 -7.65895 2
      vertex -7.82692 -8.50267 2
    endloop
  endfacet
  facet normal 4.47233e-017 0 1
    outer loop
      vertex -7.32821 -10.445 2
      vertex -7.88 -7.5 2
      vertex -7.63867 -9.48952 2
    endloop
  endfacet
  facet normal 4.47233e-017 0 1
    outer loop
      vertex -7.63867 -9.48952 2
      vertex -7.88 -7.5 2
      vertex -7.82692 -8.50267 2
    endloop
  endfacet
  facet normal 4.47233e-017 0 1
    outer loop
      vertex -6.90045 -11.354 2
      vertex -7.88 -7.5 2
      vertex -7.32821 -10.445 2
    endloop
  endfacet
  facet normal 4.47233e-017 0 1
    outer loop
      vertex -6.36214 -12.2023 2
      vertex -7.88 -7.5 2
      vertex -6.90045 -11.354 2
    endloop
  endfacet
  facet normal 4.47233e-017 0 1
    outer loop
      vertex -5.72175 -12.9764 2
      vertex -7.88 -7.5 2
      vertex -6.36214 -12.2023 2
    endloop
  endfacet
  facet normal 4.47233e-017 0 1
    outer loop
      vertex -4.98939 -13.6641 2
      vertex -7.88 -7.5 2
      vertex -5.72175 -12.9764 2
    endloop
  endfacet
  facet normal 4.47233e-017 0 1
    outer loop
      vertex -4.17661 -14.2546 2
      vertex -7.88 -7.5 2
      vertex -4.98939 -13.6641 2
    endloop
  endfacet
  facet normal 4.47233e-017 0 1
    outer loop
      vertex -3.29623 -14.7386 2
      vertex -7.88 -7.5 2
      vertex -4.17661 -14.2546 2
    endloop
  endfacet
  facet normal 4.47233e-017 0 1
    outer loop
      vertex -2.36214 -15.1085 2
      vertex -7.88 -7.5 2
      vertex -3.29623 -14.7386 2
    endloop
  endfacet
  facet normal 4.47233e-017 0 1
    outer loop
      vertex -1.38905 -15.3583 2
      vertex -7.88 -7.5 2
      vertex -2.36214 -15.1085 2
    endloop
  endfacet
  facet normal 4.47233e-017 0 1
    outer loop
      vertex -0.392324 -15.4842 2
      vertex -7.88 -7.5 2
      vertex -1.38905 -15.3583 2
    endloop
  endfacet
  facet normal 4.47233e-017 0 1
    outer loop
      vertex 0.11 -15.4842 2
      vertex -7.88 -7.5 2
      vertex -0.392324 -15.4842 2
    endloop
  endfacet
  facet normal 4.47233e-017 0 1
    outer loop
      vertex 0.11 -7.5 2
      vertex -7.88 -7.5 2
      vertex 0.11 -15.4842 2
    endloop
  endfacet
  facet normal 2.22045e-016 0 1
    outer loop
      vertex -7.89 -7.5 2
      vertex 0.11 -7.5 2
      vertex -7.89 31.5 2
    endloop
  endfacet
  facet normal 2.22045e-016 0 1
    outer loop
      vertex -7.89 31.5 2
      vertex 0.11 -7.5 2
      vertex 0.11 31.5 2
    endloop
  endfacet
  facet normal 0 -1 0
    outer loop
      vertex -7.89 31.5 49
      vertex -7.89 31.5 3.50608e-015
      vertex -7.89 31.5 2
    endloop
  endfacet
  facet normal 0 -1 0
    outer loop
      vertex 0.11 31.5 2
      vertex 0.11 31.5 49
      vertex -7.89 31.5 2
    endloop
  endfacet
  facet normal 0 -1 0
    outer loop
      vertex 0.11 31.5 49
      vertex -7.89 31.5 49
      vertex -7.89 31.5 2
    endloop
  endfacet
  facet normal 2.22045e-016 0 1
    outer loop
      vertex 7.39987 -27.4995 49
      vertex 7.9 -33.5 49
      vertex 7.9 33.5 49
    endloop
  endfacet
  facet normal 2.22045e-016 0 1
    outer loop
      vertex 0.11 31.5 49
      vertex 0.11 -15.5 49
      vertex 0.610125 -9.4995 49
    endloop
  endfacet
  facet normal 2.22045e-016 0 1
    outer loop
      vertex 7.39987 23.5005 49
      vertex 5.9 -33.5 49
      vertex 7.9 33.5 49
    endloop
  endfacet
  facet normal 2.22045e-016 0 1
    outer loop
      vertex 0.11 -15.5 49
      vertex 2.11 -15.5 49
      vertex 0.610125 -9.4995 49
    endloop
  endfacet
  facet normal 2.22045e-016 0 1
    outer loop
      vertex -0.8905 32.0001 49
      vertex 0.11 31.5 49
      vertex 7.9 33.5 49
    endloop
  endfacet
  facet normal 2.22045e-016 0 1
    outer loop
      vertex 2.11 -15.5 49
      vertex 1.60987 -5.5005 49
      vertex 1.60987 -9.4995 49
    endloop
  endfacet
  facet normal 2.22045e-016 0 1
    outer loop
      vertex 0.11 31.5 49
      vertex 2.11 31.5 49
      vertex 7.9 33.5 49
    endloop
  endfacet
  facet normal 2.22045e-016 0 1
    outer loop
      vertex 2.11 31.5 49
      vertex 5.9 31.5 49
      vertex 7.9 33.5 49
    endloop
  endfacet
  facet normal 2.22045e-016 0 1
    outer loop
      vertex 7.39987 -23.5005 49
      vertex 7.39987 -27.4995 49
      vertex 7.9 33.5 49
    endloop
  endfacet
  facet normal 2.22045e-016 0 1
    outer loop
      vertex 5.9 -33.5 49
      vertex 7.9 -33.5 49
      vertex 7.39987 -27.4995 49
    endloop
  endfacet
  facet normal 2.22045e-016 0 1
    outer loop
      vertex 1.60987 -9.4995 49
      vertex 0.610125 -9.4995 49
      vertex 2.11 -15.5 49
    endloop
  endfacet
  facet normal 2.22045e-016 0 1
    outer loop
      vertex 5.9 -33.5 49
      vertex 7.39987 -27.4995 49
      vertex 6.40013 -27.4995 49
    endloop
  endfacet
  facet normal 2.22045e-016 0 1
    outer loop
      vertex 5.9 -33.5 49
      vertex 6.40013 -23.5005 49
      vertex 7.9 33.5 49
    endloop
  endfacet
  facet normal 2.22045e-016 0 1
    outer loop
      vertex 5.9 -33.5 49
      vertex 6.40013 -27.4995 49
      vertex 6.40013 -23.5005 49
    endloop
  endfacet
  facet normal 2.22045e-016 0 1
    outer loop
      vertex 0.610125 -5.5005 49
      vertex 1.60987 -5.5005 49
      vertex 0.11 31.5 49
    endloop
  endfacet
  facet normal 2.22045e-016 0 1
    outer loop
      vertex 0.11 31.5 49
      vertex 0.610125 -9.4995 49
      vertex 0.610125 -5.5005 49
    endloop
  endfacet
  facet normal 2.22045e-016 0 1
    outer loop
      vertex 7.39987 27.4995 49
      vertex 7.39987 23.5005 49
      vertex 7.9 33.5 49
    endloop
  endfacet
  facet normal 2.22045e-016 0 1
    outer loop
      vertex 6.40013 23.5005 49
      vertex 5.9 -33.5 49
      vertex 7.39987 23.5005 49
    endloop
  endfacet
  facet normal 2.22045e-016 0 1
    outer loop
      vertex 5.9 31.5 49
      vertex 5.9 -33.5 49
      vertex 6.40013 23.5005 49
    endloop
  endfacet
  facet normal 2.22045e-016 0 1
    outer loop
      vertex 1.60987 23.5005 49
      vertex 0.610125 23.5005 49
      vertex 2.11 -15.5 49
    endloop
  endfacet
  facet normal 2.22045e-016 0 1
    outer loop
      vertex 5.9 31.5 49
      vertex 6.40013 23.5005 49
      vertex 6.40013 27.4995 49
    endloop
  endfacet
  facet normal 2.22045e-016 0 1
    outer loop
      vertex 5.9 31.5 49
      vertex 7.39987 27.4995 49
      vertex 7.9 33.5 49
    endloop
  endfacet
  facet normal 2.22045e-016 0 1
    outer loop
      vertex 1.60987 27.4995 49
      vertex 1.60987 23.5005 49
      vertex 2.11 31.5 49
    endloop
  endfacet
  facet normal 2.22045e-016 0 1
    outer loop
      vertex 6.40013 -23.5005 49
      vertex 7.39987 -23.5005 49
      vertex 7.9 33.5 49
    endloop
  endfacet
  facet normal 2.22045e-016 0 1
    outer loop
      vertex 1.60987 -5.5005 49
      vertex 0.610125 23.5005 49
      vertex 0.11 31.5 49
    endloop
  endfacet
  facet normal 2.22045e-016 0 1
    outer loop
      vertex -0.8905 32.0001 49
      vertex -4.8895 32.0001 49
      vertex 0.11 31.5 49
    endloop
  endfacet
  facet normal 2.22045e-016 0 1
    outer loop
      vertex 0.11 31.5 49
      vertex 1.60987 27.4995 49
      vertex 2.11 31.5 49
    endloop
  endfacet
  facet normal 2.22045e-016 0 1
    outer loop
      vertex -0.8905 32.9999 49
      vertex -0.8905 32.0001 49
      vertex 7.9 33.5 49
    endloop
  endfacet
  facet normal 2.22045e-016 0 1
    outer loop
      vertex -4.8895 32.0001 49
      vertex -4.8895 32.9999 49
      vertex -7.89 33.5 49
    endloop
  endfacet
  facet normal 2.22045e-016 0 1
    outer loop
      vertex -7.89 33.5 49
      vertex -4.8895 32.9999 49
      vertex 7.9 33.5 49
    endloop
  endfacet
  facet normal 2.22045e-016 0 1
    outer loop
      vertex -4.8895 32.9999 49
      vertex -0.8905 32.9999 49
      vertex 7.9 33.5 49
    endloop
  endfacet
  facet normal 2.22045e-016 0 1
    outer loop
      vertex 6.40013 27.4995 49
      vertex 7.39987 27.4995 49
      vertex 5.9 31.5 49
    endloop
  endfacet
  facet normal 2.22045e-016 0 1
    outer loop
      vertex 2.11 -15.5 49
      vertex 0.610125 23.5005 49
      vertex 1.60987 -5.5005 49
    endloop
  endfacet
  facet normal 2.22045e-016 0 1
    outer loop
      vertex 0.610125 23.5005 49
      vertex 0.610125 27.4995 49
      vertex 0.11 31.5 49
    endloop
  endfacet
  facet normal 2.22045e-016 0 1
    outer loop
      vertex -7.89 31.5 49
      vertex -4.8895 32.0001 49
      vertex -7.89 33.5 49
    endloop
  endfacet
  facet normal 2.22045e-016 0 1
    outer loop
      vertex -7.89 31.5 49
      vertex 0.11 31.5 49
      vertex -4.8895 32.0001 49
    endloop
  endfacet
  facet normal 2.22045e-016 0 1
    outer loop
      vertex 0.610125 27.4995 49
      vertex 1.60987 27.4995 49
      vertex 0.11 31.5 49
    endloop
  endfacet
  facet normal 2.22045e-016 0 1
    outer loop
      vertex 2.11 -15.5 49
      vertex 2.11 31.5 49
      vertex 1.60987 23.5005 49
    endloop
  endfacet
  facet normal 0 -1 0
    outer loop
      vertex 0.11 -15.5 1.72973e-015
      vertex 2.1 -15.5 1.28786e-015
      vertex 2.1 -15.5 2
    endloop
  endfacet
  facet normal 0 -1 0
    outer loop
      vertex 2.11 -15.5 49
      vertex 0.11 -15.5 1.72973e-015
      vertex 2.1 -15.5 2
    endloop
  endfacet
  facet normal 0 -1 0
    outer loop
      vertex 2.11 -15.5 2
      vertex 2.11 -15.5 49
      vertex 2.1 -15.5 2
    endloop
  endfacet
  facet normal 0 -1 0
    outer loop
      vertex 2.11 -15.5 49
      vertex 0.11 -15.5 49
      vertex 0.11 -15.5 1.72973e-015
    endloop
  endfacet
  facet normal 1 0 -1.77321e-016
    outer loop
      vertex 7.9 -33.5 49
      vertex 7.9 -33.5 0
      vertex 7.9 33.5 0
    endloop
  endfacet
  facet normal 1 0 -1.77321e-016
    outer loop
      vertex 7.9 33.5 49
      vertex 7.9 -33.5 49
      vertex 7.9 33.5 0
    endloop
  endfacet
  facet normal 0 1 0
    outer loop
      vertex 7.9 33.5 0
      vertex -7.89 33.5 3.50608e-015
      vertex 7.9 33.5 49
    endloop
  endfacet
  facet normal 0 1 0
    outer loop
      vertex 7.9 33.5 49
      vertex -7.89 33.5 3.50608e-015
      vertex -7.89 33.5 49
    endloop
  endfacet
  facet normal -1 0 1.77321e-016
    outer loop
      vertex -7.89 31.5 3.50608e-015
      vertex -7.89 31.5 49
      vertex -7.89 33.5 3.50608e-015
    endloop
  endfacet
  facet normal -1 0 1.77321e-016
    outer loop
      vertex -7.89 33.5 3.50608e-015
      vertex -7.89 31.5 49
      vertex -7.89 33.5 49
    endloop
  endfacet
  facet normal -1 0 1.77321e-016
    outer loop
      vertex -7.89 -7.5 3.50608e-015
      vertex -7.89 -7.5 2
      vertex -7.89 31.5 3.50608e-015
    endloop
  endfacet
  facet normal -1 0 1.77321e-016
    outer loop
      vertex -7.89 31.5 3.50608e-015
      vertex -7.89 -7.5 2
      vertex -7.89 31.5 2
    endloop
  endfacet
  facet normal -1 0 1.77321e-016
    outer loop
      vertex 2.1 -29.7 1.28786e-015
      vertex 2.1 -29.7 2
      vertex 2.1 -15.5 1.28786e-015
    endloop
  endfacet
  facet normal -1 0 1.77321e-016
    outer loop
      vertex 2.1 -15.5 1.28786e-015
      vertex 2.1 -29.7 2
      vertex 2.1 -15.5 2
    endloop
  endfacet
  facet normal 0 -1 0
    outer loop
      vertex 2.1 -29.7 1.28786e-015
      vertex 2.11 -29.7 1.28564e-015
      vertex 2.11 -29.7 2
    endloop
  endfacet
  facet normal 0 -1 0
    outer loop
      vertex 2.1 -29.7 2
      vertex 2.1 -29.7 1.28786e-015
      vertex 2.11 -29.7 2
    endloop
  endfacet
  facet normal 0 -1 0
    outer loop
      vertex 5.9 -29.7 2
      vertex 2.1 -29.7 2
      vertex 2.11 -29.7 2
    endloop
  endfacet
  facet normal -1 0 1.77321e-016
    outer loop
      vertex 2.11 -29.8589 6.13591e-016
      vertex 2.11 -29.8589 2
      vertex 2.11 -29.7 6.13591e-016
    endloop
  endfacet
  facet normal -1 0 1.77321e-016
    outer loop
      vertex 2.11 -29.7 1.28564e-015
      vertex 2.11 -29.8589 2
      vertex 2.11 -29.7 2
    endloop
  endfacet
  facet normal -1 0 1.77321e-016
    outer loop
      vertex 2.11 -29.7 6.13591e-016
      vertex 2.11 -29.8589 2
      vertex 2.11 -29.7 1.28564e-015
    endloop
  endfacet
  facet normal 0 1 0
    outer loop
      vertex 2.11 -29.7 1.28564e-015
      vertex 5.9 -29.7 4.44089e-016
      vertex 2.11 -29.7 6.13591e-016
    endloop
  endfacet
  facet normal -4.47233e-017 0 -1
    outer loop
      vertex 2.11 -29.8589 6.13591e-016
      vertex 2.11 -29.7 6.13591e-016
      vertex 2.12996 -30.1763 6.12698e-016
    endloop
  endfacet
  facet normal -4.47233e-017 0 -1
    outer loop
      vertex 2.12996 -30.1763 6.12698e-016
      vertex 2.11 -29.7 6.13591e-016
      vertex 5.9 -29.7 4.44089e-016
    endloop
  endfacet
  facet normal -4.47233e-017 0 -1
    outer loop
      vertex 2.12996 -30.1763 6.12698e-016
      vertex 5.9 -29.7 4.44089e-016
      vertex 5.9 -33.4925 4.44089e-016
    endloop
  endfacet
  facet normal -4.47233e-017 0 -1
    outer loop
      vertex 2.12996 -30.1763 6.12698e-016
      vertex 5.9 -33.4925 4.44089e-016
      vertex 5.6614 -33.4925 4.5476e-016
    endloop
  endfacet
  facet normal -4.47233e-017 0 -1
    outer loop
      vertex 2.12996 -30.1763 6.12698e-016
      vertex 5.6614 -33.4925 4.5476e-016
      vertex 5.18795 -33.4327 4.75934e-016
    endloop
  endfacet
  facet normal -4.47233e-017 0 -1
    outer loop
      vertex 2.12996 -30.1763 6.12698e-016
      vertex 5.18795 -33.4327 4.75934e-016
      vertex 4.72573 -33.314 4.96606e-016
    endloop
  endfacet
  facet normal -4.47233e-017 0 -1
    outer loop
      vertex 2.12996 -30.1763 6.12698e-016
      vertex 4.72573 -33.314 4.96606e-016
      vertex 4.28204 -33.1383 5.1645e-016
    endloop
  endfacet
  facet normal -4.47233e-017 0 -1
    outer loop
      vertex 2.12996 -30.1763 6.12698e-016
      vertex 4.28204 -33.1383 5.1645e-016
      vertex 3.86386 -32.9084 5.35152e-016
    endloop
  endfacet
  facet normal -4.47233e-017 0 -1
    outer loop
      vertex 2.12996 -30.1763 6.12698e-016
      vertex 3.86386 -32.9084 5.35152e-016
      vertex 3.47779 -32.6279 5.52419e-016
    endloop
  endfacet
  facet normal -4.47233e-017 0 -1
    outer loop
      vertex 2.12996 -30.1763 6.12698e-016
      vertex 3.47779 -32.6279 5.52419e-016
      vertex 3.12992 -32.3013 5.67976e-016
    endloop
  endfacet
  facet normal -4.47233e-017 0 -1
    outer loop
      vertex 2.12996 -30.1763 6.12698e-016
      vertex 3.12992 -32.3013 5.67976e-016
      vertex 2.82573 -31.9336 5.81581e-016
    endloop
  endfacet
  facet normal -4.47233e-017 0 -1
    outer loop
      vertex 2.12996 -30.1763 6.12698e-016
      vertex 2.82573 -31.9336 5.81581e-016
      vertex 2.57003 -31.5307 5.93016e-016
    endloop
  endfacet
  facet normal -4.47233e-017 0 -1
    outer loop
      vertex 2.12996 -30.1763 6.12698e-016
      vertex 2.57003 -31.5307 5.93016e-016
      vertex 2.36685 -31.0989 6.02104e-016
    endloop
  endfacet
  facet normal -4.47233e-017 0 -1
    outer loop
      vertex 2.12996 -30.1763 6.12698e-016
      vertex 2.36685 -31.0989 6.02104e-016
      vertex 2.21938 -30.645 6.08699e-016
    endloop
  endfacet
  facet normal -1 0 1.77321e-016
    outer loop
      vertex 5.9 -33.5 4.44089e-016
      vertex 5.9 -33.5 49
      vertex 5.9 -33.4925 4.44089e-016
    endloop
  endfacet
  facet normal -1 0 1.77321e-016
    outer loop
      vertex 5.9 -33.4925 2
      vertex 5.9 -33.5 49
      vertex 5.9 31.5 49
    endloop
  endfacet
  facet normal -1 0 1.77321e-016
    outer loop
      vertex 5.9 -29.7 2
      vertex 5.9 31.5 49
      vertex 5.9 31.5 2
    endloop
  endfacet
  facet normal -1 0 1.77321e-016
    outer loop
      vertex 5.9 -33.4925 4.44089e-016
      vertex 5.9 -33.5 49
      vertex 5.9 -33.4925 2
    endloop
  endfacet
  facet normal -1 0 1.77321e-016
    outer loop
      vertex 5.9 -33.4925 2
      vertex 5.9 31.5 49
      vertex 5.9 -29.7 2
    endloop
  endfacet
  facet normal 0 -1 0
    outer loop
      vertex 5.6614 -33.4925 2
      vertex 5.6614 -33.4925 4.5476e-016
      vertex 5.9 -33.4925 4.44089e-016
    endloop
  endfacet
  facet normal 0 -1 0
    outer loop
      vertex 5.9 -33.4925 2
      vertex 5.6614 -33.4925 2
      vertex 5.9 -33.4925 4.44089e-016
    endloop
  endfacet
  facet normal 0 -1 0
    outer loop
      vertex 5.9 -33.5 4.44089e-016
      vertex 7.9 -33.5 0
      vertex 7.9 -33.5 49
    endloop
  endfacet
  facet normal 0 -1 0
    outer loop
      vertex 5.9 -33.5 49
      vertex 5.9 -33.5 4.44089e-016
      vertex 7.9 -33.5 49
    endloop
  endfacet
  facet normal 1 0 -1.77321e-016
    outer loop
      vertex 6.4 -23.5 3.33067e-016
      vertex 6.4 -23.5 0.005
      vertex 6.4 -27.5 0.005
    endloop
  endfacet
  facet normal 1 0 -1.77321e-016
    outer loop
      vertex 6.4 -27.5 3.33067e-016
      vertex 6.4 -23.5 3.33067e-016
      vertex 6.4 -27.5 0.005
    endloop
  endfacet
  facet normal 0 1 0
    outer loop
      vertex 6.4 -27.5 0.005
      vertex 7.4 -27.5 0.005
      vertex 6.4 -27.5 3.33067e-016
    endloop
  endfacet
  facet normal 0 1 0
    outer loop
      vertex 6.4 -27.5 3.33067e-016
      vertex 7.4 -27.5 0.005
      vertex 7.4 -27.5 1.11022e-016
    endloop
  endfacet
  facet normal 0 -1 0
    outer loop
      vertex 7.4 -23.5 0.005
      vertex 6.4 -23.5 0.005
      vertex 6.4 -23.5 3.33067e-016
    endloop
  endfacet
  facet normal 0 -1 0
    outer loop
      vertex 7.4 -23.5 1.11022e-016
      vertex 7.4 -23.5 0.005
      vertex 6.4 -23.5 3.33067e-016
    endloop
  endfacet
  facet normal -1 0 1.77321e-016
    outer loop
      vertex 7.4 -23.5 0.005
      vertex 7.4 -23.5 1.11022e-016
      vertex 7.4 -27.5 0.005
    endloop
  endfacet
  facet normal -1 0 1.77321e-016
    outer loop
      vertex 7.4 -27.5 0.005
      vertex 7.4 -23.5 1.11022e-016
      vertex 7.4 -27.5 1.11022e-016
    endloop
  endfacet
  facet normal 0 1 0
    outer loop
      vertex 0.61 -9.5 0.005
      vertex 1.61 -9.5 0.005
      vertex 0.61 -9.5 1.61871e-015
    endloop
  endfacet
  facet normal 0 1 0
    outer loop
      vertex 0.61 -9.5 1.61871e-015
      vertex 1.61 -9.5 0.005
      vertex 1.61 -9.5 1.39666e-015
    endloop
  endfacet
  facet normal 1 0 -1.77321e-016
    outer loop
      vertex 0.61 -5.5 1.61871e-015
      vertex 0.61 -5.5 0.005
      vertex 0.61 -9.5 0.005
    endloop
  endfacet
  facet normal 1 0 -1.77321e-016
    outer loop
      vertex 0.61 -9.5 1.61871e-015
      vertex 0.61 -5.5 1.61871e-015
      vertex 0.61 -9.5 0.005
    endloop
  endfacet
  facet normal 0 -1 0
    outer loop
      vertex 1.61 -5.5 0.005
      vertex 0.61 -5.5 0.005
      vertex 0.61 -5.5 1.61871e-015
    endloop
  endfacet
  facet normal 0 -1 0
    outer loop
      vertex 1.61 -5.5 1.39666e-015
      vertex 1.61 -5.5 0.005
      vertex 0.61 -5.5 1.61871e-015
    endloop
  endfacet
  facet normal -1 0 1.77321e-016
    outer loop
      vertex 1.61 -5.5 0.005
      vertex 1.61 -5.5 1.39666e-015
      vertex 1.61 -9.5 0.005
    endloop
  endfacet
  facet normal -1 0 1.77321e-016
    outer loop
      vertex 1.61 -9.5 0.005
      vertex 1.61 -5.5 1.39666e-015
      vertex 1.61 -9.5 1.39666e-015
    endloop
  endfacet
  facet normal 0 1 0
    outer loop
      vertex 6.4 23.5 0.005
      vertex 7.4 23.5 0.005
      vertex 6.4 23.5 3.33067e-016
    endloop
  endfacet
  facet normal 0 1 0
    outer loop
      vertex 6.4 23.5 3.33067e-016
      vertex 7.4 23.5 0.005
      vertex 7.4 23.5 1.11022e-016
    endloop
  endfacet
  facet normal 1 0 -1.77321e-016
    outer loop
      vertex 6.4 27.5 3.33067e-016
      vertex 6.4 27.5 0.005
      vertex 6.4 23.5 0.005
    endloop
  endfacet
  facet normal 1 0 -1.77321e-016
    outer loop
      vertex 6.4 23.5 3.33067e-016
      vertex 6.4 27.5 3.33067e-016
      vertex 6.4 23.5 0.005
    endloop
  endfacet
  facet normal 0 -1 0
    outer loop
      vertex 7.4 27.5 0.005
      vertex 6.4 27.5 0.005
      vertex 6.4 27.5 3.33067e-016
    endloop
  endfacet
  facet normal 0 -1 0
    outer loop
      vertex 7.4 27.5 1.11022e-016
      vertex 7.4 27.5 0.005
      vertex 6.4 27.5 3.33067e-016
    endloop
  endfacet
  facet normal -1 0 1.77321e-016
    outer loop
      vertex 7.4 27.5 0.005
      vertex 7.4 27.5 1.11022e-016
      vertex 7.4 23.5 0.005
    endloop
  endfacet
  facet normal -1 0 1.77321e-016
    outer loop
      vertex 7.4 23.5 0.005
      vertex 7.4 27.5 1.11022e-016
      vertex 7.4 23.5 1.11022e-016
    endloop
  endfacet
  facet normal 0 1 0
    outer loop
      vertex 0.61 23.5 0.005
      vertex 1.61 23.5 0.005
      vertex 0.61 23.5 1.61871e-015
    endloop
  endfacet
  facet normal 0 1 0
    outer loop
      vertex 0.61 23.5 1.61871e-015
      vertex 1.61 23.5 0.005
      vertex 1.61 23.5 1.39666e-015
    endloop
  endfacet
  facet normal 1 0 -1.77321e-016
    outer loop
      vertex 0.61 27.5 1.61871e-015
      vertex 0.61 27.5 0.005
      vertex 0.61 23.5 0.005
    endloop
  endfacet
  facet normal 1 0 -1.77321e-016
    outer loop
      vertex 0.61 23.5 1.61871e-015
      vertex 0.61 27.5 1.61871e-015
      vertex 0.61 23.5 0.005
    endloop
  endfacet
  facet normal 0 -1 0
    outer loop
      vertex 1.61 27.5 0.005
      vertex 0.61 27.5 0.005
      vertex 0.61 27.5 1.61871e-015
    endloop
  endfacet
  facet normal 0 -1 0
    outer loop
      vertex 1.61 27.5 1.39666e-015
      vertex 1.61 27.5 0.005
      vertex 0.61 27.5 1.61871e-015
    endloop
  endfacet
  facet normal -1 0 1.77321e-016
    outer loop
      vertex 1.61 27.5 0.005
      vertex 1.61 27.5 1.39666e-015
      vertex 1.61 23.5 0.005
    endloop
  endfacet
  facet normal -1 0 1.77321e-016
    outer loop
      vertex 1.61 23.5 0.005
      vertex 1.61 27.5 1.39666e-015
      vertex 1.61 23.5 1.39666e-015
    endloop
  endfacet
  facet normal 2.22045e-016 1 -3.93732e-032
    outer loop
      vertex -4.89 32 0.005
      vertex -0.89 32 0.005
      vertex -4.89 32 2.83995e-015
    endloop
  endfacet
  facet normal 2.22045e-016 1 -3.93732e-032
    outer loop
      vertex -4.89 32 2.83995e-015
      vertex -0.89 32 0.005
      vertex -0.89 32 1.95177e-015
    endloop
  endfacet
  facet normal 1 -2.22045e-016 -1.77321e-016
    outer loop
      vertex -4.89 33 2.83995e-015
      vertex -4.89 33 0.005
      vertex -4.89 32 0.005
    endloop
  endfacet
  facet normal 1 -2.22045e-016 -1.77321e-016
    outer loop
      vertex -4.89 32 2.83995e-015
      vertex -4.89 33 2.83995e-015
      vertex -4.89 32 0.005
    endloop
  endfacet
  facet normal -2.22045e-016 -1 3.93732e-032
    outer loop
      vertex -0.89 33 0.005
      vertex -4.89 33 0.005
      vertex -4.89 33 2.83995e-015
    endloop
  endfacet
  facet normal -2.22045e-016 -1 3.93732e-032
    outer loop
      vertex -0.89 33 1.95177e-015
      vertex -0.89 33 0.005
      vertex -4.89 33 2.83995e-015
    endloop
  endfacet
  facet normal -1 2.22045e-016 1.77321e-016
    outer loop
      vertex -0.89 33 0.005
      vertex -0.89 33 1.95177e-015
      vertex -0.89 32 0.005
    endloop
  endfacet
  facet normal -1 2.22045e-016 1.77321e-016
    outer loop
      vertex -0.89 32 0.005
      vertex -0.89 33 1.95177e-015
      vertex -0.89 32 1.95177e-015
    endloop
  endfacet
  facet normal 0 -1 0
    outer loop
      vertex 2.11 31.5 2
      vertex 5.9 31.5 2
      vertex 5.9 31.5 49
    endloop
  endfacet
  facet normal 0 -1 0
    outer loop
      vertex 2.11 31.5 49
      vertex 2.11 31.5 2
      vertex 5.9 31.5 49
    endloop
  endfacet
  facet normal 1 0 -1.77321e-016
    outer loop
      vertex 2.11 -15.5 49
      vertex 2.11 -15.5 2
      vertex 2.11 31.5 2
    endloop
  endfacet
  facet normal 1 0 -1.77321e-016
    outer loop
      vertex 2.11 31.5 49
      vertex 2.11 -15.5 49
      vertex 2.11 31.5 2
    endloop
  endfacet
  facet normal 2.20997e-017 -0.995035 0.0995284
    outer loop
      vertex 6.40013 -27.4995 49
      vertex 7.39987 -27.4995 49
      vertex 7.35 -27.3 50.9945
    endloop
  endfacet
  facet normal 2.20997e-017 -0.995035 0.0995284
    outer loop
      vertex 6.45 -27.3 50.9945
      vertex 6.40013 -27.4995 49
      vertex 7.35 -27.3 50.9945
    endloop
  endfacet
  facet normal 0.999687 0 0.0249984
    outer loop
      vertex 7.35 -27.3 50.9945
      vertex 7.39987 -27.4995 49
      vertex 7.39987 -23.5005 49
    endloop
  endfacet
  facet normal 0.999687 0 0.0249984
    outer loop
      vertex 7.35 -23.7 50.9945
      vertex 7.35 -27.3 50.9945
      vertex 7.39987 -23.5005 49
    endloop
  endfacet
  facet normal 2.20997e-017 0.995035 0.0995284
    outer loop
      vertex 7.39987 -23.5005 49
      vertex 6.40013 -23.5005 49
      vertex 7.35 -23.7 50.9945
    endloop
  endfacet
  facet normal 2.20997e-017 0.995035 0.0995284
    outer loop
      vertex 7.35 -23.7 50.9945
      vertex 6.40013 -23.5005 49
      vertex 6.45 -23.7 50.9945
    endloop
  endfacet
  facet normal -0.999687 0 0.0249984
    outer loop
      vertex 6.40013 -27.4995 49
      vertex 6.45 -27.3 50.9945
      vertex 6.40013 -23.5005 49
    endloop
  endfacet
  facet normal -0.999687 0 0.0249984
    outer loop
      vertex 6.40013 -23.5005 49
      vertex 6.45 -27.3 50.9945
      vertex 6.45 -23.7 50.9945
    endloop
  endfacet
  facet normal 0.999687 0 0.0249984
    outer loop
      vertex 1.56 -9.3 50.9945
      vertex 1.60987 -9.4995 49
      vertex 1.60987 -5.5005 49
    endloop
  endfacet
  facet normal 0.999687 0 0.0249984
    outer loop
      vertex 1.56 -5.7 50.9945
      vertex 1.56 -9.3 50.9945
      vertex 1.60987 -5.5005 49
    endloop
  endfacet
  facet normal 2.20997e-017 -0.995035 0.0995284
    outer loop
      vertex 0.610125 -9.4995 49
      vertex 1.60987 -9.4995 49
      vertex 1.56 -9.3 50.9945
    endloop
  endfacet
  facet normal 2.20997e-017 -0.995035 0.0995284
    outer loop
      vertex 0.66 -9.3 50.9945
      vertex 0.610125 -9.4995 49
      vertex 1.56 -9.3 50.9945
    endloop
  endfacet
  facet normal 2.20997e-017 0.995035 0.0995284
    outer loop
      vertex 1.60987 -5.5005 49
      vertex 0.610125 -5.5005 49
      vertex 1.56 -5.7 50.9945
    endloop
  endfacet
  facet normal 2.20997e-017 0.995035 0.0995284
    outer loop
      vertex 1.56 -5.7 50.9945
      vertex 0.610125 -5.5005 49
      vertex 0.66 -5.7 50.9945
    endloop
  endfacet
  facet normal -0.999687 0 0.0249984
    outer loop
      vertex 0.610125 -9.4995 49
      vertex 0.66 -9.3 50.9945
      vertex 0.610125 -5.5005 49
    endloop
  endfacet
  facet normal -0.999687 0 0.0249984
    outer loop
      vertex 0.610125 -5.5005 49
      vertex 0.66 -9.3 50.9945
      vertex 0.66 -5.7 50.9945
    endloop
  endfacet
  facet normal 2.20997e-017 -0.995035 0.0995284
    outer loop
      vertex 6.40013 23.5005 49
      vertex 7.39987 23.5005 49
      vertex 7.35 23.7 50.9945
    endloop
  endfacet
  facet normal 2.20997e-017 -0.995035 0.0995284
    outer loop
      vertex 6.45 23.7 50.9945
      vertex 6.40013 23.5005 49
      vertex 7.35 23.7 50.9945
    endloop
  endfacet
  facet normal 0.999687 0 0.0249984
    outer loop
      vertex 7.35 23.7 50.9945
      vertex 7.39987 23.5005 49
      vertex 7.39987 27.4995 49
    endloop
  endfacet
  facet normal 0.999687 0 0.0249984
    outer loop
      vertex 7.35 27.3 50.9945
      vertex 7.35 23.7 50.9945
      vertex 7.39987 27.4995 49
    endloop
  endfacet
  facet normal 2.20997e-017 0.995035 0.0995284
    outer loop
      vertex 7.39987 27.4995 49
      vertex 6.40013 27.4995 49
      vertex 7.35 27.3 50.9945
    endloop
  endfacet
  facet normal 2.20997e-017 0.995035 0.0995284
    outer loop
      vertex 7.35 27.3 50.9945
      vertex 6.40013 27.4995 49
      vertex 6.45 27.3 50.9945
    endloop
  endfacet
  facet normal -0.999687 0 0.0249984
    outer loop
      vertex 6.40013 23.5005 49
      vertex 6.45 23.7 50.9945
      vertex 6.40013 27.4995 49
    endloop
  endfacet
  facet normal -0.999687 0 0.0249984
    outer loop
      vertex 6.40013 27.4995 49
      vertex 6.45 23.7 50.9945
      vertex 6.45 27.3 50.9945
    endloop
  endfacet
  facet normal 0.999687 0 0.0249984
    outer loop
      vertex 1.56 23.7 50.9945
      vertex 1.60987 23.5005 49
      vertex 1.60987 27.4995 49
    endloop
  endfacet
  facet normal 0.999687 0 0.0249984
    outer loop
      vertex 1.56 27.3 50.9945
      vertex 1.56 23.7 50.9945
      vertex 1.60987 27.4995 49
    endloop
  endfacet
  facet normal 2.20997e-017 -0.995035 0.0995284
    outer loop
      vertex 0.610125 23.5005 49
      vertex 1.60987 23.5005 49
      vertex 1.56 23.7 50.9945
    endloop
  endfacet
  facet normal 2.20997e-017 -0.995035 0.0995284
    outer loop
      vertex 0.66 23.7 50.9945
      vertex 0.610125 23.5005 49
      vertex 1.56 23.7 50.9945
    endloop
  endfacet
  facet normal 2.20997e-017 0.995035 0.0995284
    outer loop
      vertex 1.60987 27.4995 49
      vertex 0.610125 27.4995 49
      vertex 1.56 27.3 50.9945
    endloop
  endfacet
  facet normal 2.20997e-017 0.995035 0.0995284
    outer loop
      vertex 1.56 27.3 50.9945
      vertex 0.610125 27.4995 49
      vertex 0.66 27.3 50.9945
    endloop
  endfacet
  facet normal -0.999687 0 0.0249984
    outer loop
      vertex 0.610125 23.5005 49
      vertex 0.66 23.7 50.9945
      vertex 0.610125 27.4995 49
    endloop
  endfacet
  facet normal -0.999687 0 0.0249984
    outer loop
      vertex 0.610125 27.4995 49
      vertex 0.66 23.7 50.9945
      vertex 0.66 27.3 50.9945
    endloop
  endfacet
  facet normal -2.16424e-016 -0.999687 0.0249984
    outer loop
      vertex -4.8895 32.0001 49
      vertex -0.8905 32.0001 49
      vertex -1.09 32.05 50.9945
    endloop
  endfacet
  facet normal -2.16424e-016 -0.999687 0.0249984
    outer loop
      vertex -4.69 32.05 50.9945
      vertex -4.8895 32.0001 49
      vertex -1.09 32.05 50.9945
    endloop
  endfacet
  facet normal 0.995035 -2.20942e-016 0.0995284
    outer loop
      vertex -1.09 32.05 50.9945
      vertex -0.8905 32.0001 49
      vertex -0.8905 32.9999 49
    endloop
  endfacet
  facet normal 0.995035 -2.20942e-016 0.0995284
    outer loop
      vertex -1.09 32.95 50.9945
      vertex -1.09 32.05 50.9945
      vertex -0.8905 32.9999 49
    endloop
  endfacet
  facet normal 2.27526e-016 0.999687 0.0249984
    outer loop
      vertex -0.8905 32.9999 49
      vertex -4.8895 32.9999 49
      vertex -1.09 32.95 50.9945
    endloop
  endfacet
  facet normal 2.27526e-016 0.999687 0.0249984
    outer loop
      vertex -1.09 32.95 50.9945
      vertex -4.8895 32.9999 49
      vertex -4.69 32.95 50.9945
    endloop
  endfacet
  facet normal -0.995035 2.20942e-016 0.0995284
    outer loop
      vertex -4.8895 32.0001 49
      vertex -4.69 32.05 50.9945
      vertex -4.8895 32.9999 49
    endloop
  endfacet
  facet normal -0.995035 2.20942e-016 0.0995284
    outer loop
      vertex -4.8895 32.9999 49
      vertex -4.69 32.05 50.9945
      vertex -4.69 32.95 50.9945
    endloop
  endfacet
  facet normal 2.22045e-016 0 1
    outer loop
      vertex 2.11 -15.5 2
      vertex 5.9 -29.7 2
      vertex 2.11 31.5 2
    endloop
  endfacet
  facet normal 2.22045e-016 0 1
    outer loop
      vertex 2.11 31.5 2
      vertex 5.9 -29.7 2
      vertex 5.9 31.5 2
    endloop
  endfacet
  facet normal 2.22045e-016 0 1
    outer loop
      vertex 2.1 -15.5 2
      vertex 5.9 -29.7 2
      vertex 2.11 -15.5 2
    endloop
  endfacet
  facet normal 2.22045e-016 0 1
    outer loop
      vertex 2.1 -29.7 2
      vertex 5.9 -29.7 2
      vertex 2.1 -15.5 2
    endloop
  endfacet
  facet normal 4.47233e-017 0 1
    outer loop
      vertex 2.11 -29.7 2
      vertex 2.11 -29.8589 2
      vertex 2.12996 -30.1763 2
    endloop
  endfacet
  facet normal 4.47233e-017 0 1
    outer loop
      vertex 2.36685 -31.0989 2
      vertex 2.11 -29.7 2
      vertex 2.21938 -30.645 2
    endloop
  endfacet
  facet normal 4.47233e-017 0 1
    outer loop
      vertex 2.21938 -30.645 2
      vertex 2.11 -29.7 2
      vertex 2.12996 -30.1763 2
    endloop
  endfacet
  facet normal 4.47233e-017 0 1
    outer loop
      vertex 2.57003 -31.5307 2
      vertex 2.11 -29.7 2
      vertex 2.36685 -31.0989 2
    endloop
  endfacet
  facet normal 4.47233e-017 0 1
    outer loop
      vertex 2.82573 -31.9336 2
      vertex 2.11 -29.7 2
      vertex 2.57003 -31.5307 2
    endloop
  endfacet
  facet normal 4.47233e-017 0 1
    outer loop
      vertex 3.12992 -32.3013 2
      vertex 2.11 -29.7 2
      vertex 2.82573 -31.9336 2
    endloop
  endfacet
  facet normal 4.47233e-017 0 1
    outer loop
      vertex 3.47779 -32.6279 2
      vertex 2.11 -29.7 2
      vertex 3.12992 -32.3013 2
    endloop
  endfacet
  facet normal 4.47233e-017 0 1
    outer loop
      vertex 3.86386 -32.9084 2
      vertex 2.11 -29.7 2
      vertex 3.47779 -32.6279 2
    endloop
  endfacet
  facet normal 4.47233e-017 0 1
    outer loop
      vertex 4.28204 -33.1383 2
      vertex 2.11 -29.7 2
      vertex 3.86386 -32.9084 2
    endloop
  endfacet
  facet normal 4.47233e-017 0 1
    outer loop
      vertex 4.72573 -33.314 2
      vertex 2.11 -29.7 2
      vertex 4.28204 -33.1383 2
    endloop
  endfacet
  facet normal 4.47233e-017 0 1
    outer loop
      vertex 5.18795 -33.4327 2
      vertex 2.11 -29.7 2
      vertex 4.72573 -33.314 2
    endloop
  endfacet
  facet normal 4.47233e-017 0 1
    outer loop
      vertex 5.6614 -33.4925 2
      vertex 2.11 -29.7 2
      vertex 5.18795 -33.4327 2
    endloop
  endfacet
  facet normal 4.47233e-017 0 1
    outer loop
      vertex 5.9 -33.4925 2
      vertex 2.11 -29.7 2
      vertex 5.6614 -33.4925 2
    endloop
  endfacet
  facet normal 4.47233e-017 0 1
    outer loop
      vertex 5.9 -29.7 2
      vertex 2.11 -29.7 2
      vertex 5.9 -33.4925 2
    endloop
  endfacet
  facet normal -0.998027 -0.0627903 -4.46351e-017
    outer loop
      vertex 2.11 -29.8589 6.13591e-016
      vertex 2.12996 -30.1763 6.12698e-016
      vertex 2.11 -29.8589 2
    endloop
  endfacet
  facet normal -0.998027 -0.0627903 -4.46351e-017
    outer loop
      vertex 2.11 -29.8589 2
      vertex 2.12996 -30.1763 6.12698e-016
      vertex 2.12996 -30.1763 2
    endloop
  endfacet
  facet normal -0.982287 -0.187381 -4.39312e-017
    outer loop
      vertex 2.12996 -30.1763 6.12698e-016
      vertex 2.21938 -30.645 6.08699e-016
      vertex 2.12996 -30.1763 2
    endloop
  endfacet
  facet normal -0.982287 -0.187381 -4.39312e-017
    outer loop
      vertex 2.12996 -30.1763 2
      vertex 2.21938 -30.645 6.08699e-016
      vertex 2.21938 -30.645 2
    endloop
  endfacet
  facet normal -0.951057 -0.309017 -4.25344e-017
    outer loop
      vertex 2.21938 -30.645 6.08699e-016
      vertex 2.36685 -31.0989 6.02104e-016
      vertex 2.21938 -30.645 2
    endloop
  endfacet
  facet normal -0.951057 -0.309017 -4.25344e-017
    outer loop
      vertex 2.21938 -30.645 2
      vertex 2.36685 -31.0989 6.02104e-016
      vertex 2.36685 -31.0989 2
    endloop
  endfacet
  facet normal -0.904827 -0.42578 -4.04669e-017
    outer loop
      vertex 2.36685 -31.0989 6.02104e-016
      vertex 2.57003 -31.5307 5.93016e-016
      vertex 2.36685 -31.0989 2
    endloop
  endfacet
  facet normal -0.904827 -0.42578 -4.04669e-017
    outer loop
      vertex 2.36685 -31.0989 2
      vertex 2.57003 -31.5307 5.93016e-016
      vertex 2.57003 -31.5307 2
    endloop
  endfacet
  facet normal -0.844329 -0.535826 -3.77612e-017
    outer loop
      vertex 2.57003 -31.5307 5.93016e-016
      vertex 2.82573 -31.9336 5.81581e-016
      vertex 2.57003 -31.5307 2
    endloop
  endfacet
  facet normal -0.844329 -0.535826 -3.77612e-017
    outer loop
      vertex 2.57003 -31.5307 2
      vertex 2.82573 -31.9336 5.81581e-016
      vertex 2.82573 -31.9336 2
    endloop
  endfacet
  facet normal -0.770513 -0.637424 -3.44599e-017
    outer loop
      vertex 2.82573 -31.9336 5.81581e-016
      vertex 3.12992 -32.3013 5.67976e-016
      vertex 2.82573 -31.9336 2
    endloop
  endfacet
  facet normal -0.770513 -0.637424 -3.44599e-017
    outer loop
      vertex 2.82573 -31.9336 2
      vertex 3.12992 -32.3013 5.67976e-016
      vertex 3.12992 -32.3013 2
    endloop
  endfacet
  facet normal -0.684546 -0.728969 -3.06152e-017
    outer loop
      vertex 3.12992 -32.3013 2
      vertex 3.12992 -32.3013 5.67976e-016
      vertex 3.47779 -32.6279 5.52419e-016
    endloop
  endfacet
  facet normal -0.684546 -0.728969 -3.06152e-017
    outer loop
      vertex 3.47779 -32.6279 2
      vertex 3.12992 -32.3013 2
      vertex 3.47779 -32.6279 5.52419e-016
    endloop
  endfacet
  facet normal -0.587786 -0.809017 -2.62877e-017
    outer loop
      vertex 3.47779 -32.6279 2
      vertex 3.47779 -32.6279 5.52419e-016
      vertex 3.86386 -32.9084 5.35152e-016
    endloop
  endfacet
  facet normal -0.587786 -0.809017 -2.62877e-017
    outer loop
      vertex 3.86386 -32.9084 2
      vertex 3.47779 -32.6279 2
      vertex 3.86386 -32.9084 5.35152e-016
    endloop
  endfacet
  facet normal -0.481754 -0.876307 -2.15456e-017
    outer loop
      vertex 3.86386 -32.9084 2
      vertex 3.86386 -32.9084 5.35152e-016
      vertex 4.28204 -33.1383 5.1645e-016
    endloop
  endfacet
  facet normal -0.481754 -0.876307 -2.15456e-017
    outer loop
      vertex 4.28204 -33.1383 2
      vertex 3.86386 -32.9084 2
      vertex 4.28204 -33.1383 5.1645e-016
    endloop
  endfacet
  facet normal -0.368125 -0.929776 -1.64638e-017
    outer loop
      vertex 4.28204 -33.1383 2
      vertex 4.28204 -33.1383 5.1645e-016
      vertex 4.72573 -33.314 4.96606e-016
    endloop
  endfacet
  facet normal -0.368125 -0.929776 -1.64638e-017
    outer loop
      vertex 4.72573 -33.314 2
      vertex 4.28204 -33.1383 2
      vertex 4.72573 -33.314 4.96606e-016
    endloop
  endfacet
  facet normal -0.24869 -0.968583 -1.11223e-017
    outer loop
      vertex 4.72573 -33.314 2
      vertex 4.72573 -33.314 4.96606e-016
      vertex 5.18795 -33.4327 4.75934e-016
    endloop
  endfacet
  facet normal -0.24869 -0.968583 -1.11223e-017
    outer loop
      vertex 5.18795 -33.4327 2
      vertex 4.72573 -33.314 2
      vertex 5.18795 -33.4327 4.75934e-016
    endloop
  endfacet
  facet normal -0.125333 -0.992115 -5.60532e-018
    outer loop
      vertex 5.18795 -33.4327 2
      vertex 5.18795 -33.4327 4.75934e-016
      vertex 5.6614 -33.4925 4.5476e-016
    endloop
  endfacet
  facet normal -0.125333 -0.992115 -5.60532e-018
    outer loop
      vertex 5.6614 -33.4925 2
      vertex 5.18795 -33.4327 2
      vertex 5.6614 -33.4925 4.5476e-016
    endloop
  endfacet
  facet normal -2.20997e-017 0.995035 -0.0995284
    outer loop
      vertex 6.45 -27.3 2.0045
      vertex 7.35 -27.3 2.0045
      vertex 6.4 -27.5 0.005
    endloop
  endfacet
  facet normal -2.20997e-017 0.995035 -0.0995284
    outer loop
      vertex 6.4 -27.5 0.005
      vertex 7.35 -27.3 2.0045
      vertex 7.4 -27.5 0.005
    endloop
  endfacet
  facet normal 0.999687 0 -0.0249984
    outer loop
      vertex 6.4 -23.5 0.005
      vertex 6.45 -23.7 2.0045
      vertex 6.45 -27.3 2.0045
    endloop
  endfacet
  facet normal 0.999687 0 -0.0249984
    outer loop
      vertex 6.4 -27.5 0.005
      vertex 6.4 -23.5 0.005
      vertex 6.45 -27.3 2.0045
    endloop
  endfacet
  facet normal -2.20997e-017 -0.995035 -0.0995284
    outer loop
      vertex 7.35 -23.7 2.0045
      vertex 6.45 -23.7 2.0045
      vertex 6.4 -23.5 0.005
    endloop
  endfacet
  facet normal -2.20997e-017 -0.995035 -0.0995284
    outer loop
      vertex 7.4 -23.5 0.005
      vertex 7.35 -23.7 2.0045
      vertex 6.4 -23.5 0.005
    endloop
  endfacet
  facet normal -0.999687 0 -0.0249984
    outer loop
      vertex 7.35 -23.7 2.0045
      vertex 7.4 -23.5 0.005
      vertex 7.35 -27.3 2.0045
    endloop
  endfacet
  facet normal -0.999687 0 -0.0249984
    outer loop
      vertex 7.35 -27.3 2.0045
      vertex 7.4 -23.5 0.005
      vertex 7.4 -27.5 0.005
    endloop
  endfacet
  facet normal -0.999687 0 -0.0249984
    outer loop
      vertex 1.56 -5.7 2.0045
      vertex 1.61 -5.5 0.005
      vertex 1.56 -9.3 2.0045
    endloop
  endfacet
  facet normal -0.999687 0 -0.0249984
    outer loop
      vertex 1.56 -9.3 2.0045
      vertex 1.61 -5.5 0.005
      vertex 1.61 -9.5 0.005
    endloop
  endfacet
  facet normal -2.20997e-017 0.995035 -0.0995284
    outer loop
      vertex 0.66 -9.3 2.0045
      vertex 1.56 -9.3 2.0045
      vertex 0.61 -9.5 0.005
    endloop
  endfacet
  facet normal -2.20997e-017 0.995035 -0.0995284
    outer loop
      vertex 0.61 -9.5 0.005
      vertex 1.56 -9.3 2.0045
      vertex 1.61 -9.5 0.005
    endloop
  endfacet
  facet normal 0.999687 0 -0.0249984
    outer loop
      vertex 0.61 -5.5 0.005
      vertex 0.66 -5.7 2.0045
      vertex 0.66 -9.3 2.0045
    endloop
  endfacet
  facet normal 0.999687 0 -0.0249984
    outer loop
      vertex 0.61 -9.5 0.005
      vertex 0.61 -5.5 0.005
      vertex 0.66 -9.3 2.0045
    endloop
  endfacet
  facet normal -2.20997e-017 -0.995035 -0.0995284
    outer loop
      vertex 1.56 -5.7 2.0045
      vertex 0.66 -5.7 2.0045
      vertex 0.61 -5.5 0.005
    endloop
  endfacet
  facet normal -2.20997e-017 -0.995035 -0.0995284
    outer loop
      vertex 1.61 -5.5 0.005
      vertex 1.56 -5.7 2.0045
      vertex 0.61 -5.5 0.005
    endloop
  endfacet
  facet normal -0.999687 0 -0.0249984
    outer loop
      vertex 7.35 27.3 2.0045
      vertex 7.4 27.5 0.005
      vertex 7.35 23.7 2.0045
    endloop
  endfacet
  facet normal -0.999687 0 -0.0249984
    outer loop
      vertex 7.35 23.7 2.0045
      vertex 7.4 27.5 0.005
      vertex 7.4 23.5 0.005
    endloop
  endfacet
  facet normal -2.20997e-017 0.995035 -0.0995284
    outer loop
      vertex 6.45 23.7 2.0045
      vertex 7.35 23.7 2.0045
      vertex 6.4 23.5 0.005
    endloop
  endfacet
  facet normal -2.20997e-017 0.995035 -0.0995284
    outer loop
      vertex 6.4 23.5 0.005
      vertex 7.35 23.7 2.0045
      vertex 7.4 23.5 0.005
    endloop
  endfacet
  facet normal 0.999687 0 -0.0249984
    outer loop
      vertex 6.4 27.5 0.005
      vertex 6.45 27.3 2.0045
      vertex 6.45 23.7 2.0045
    endloop
  endfacet
  facet normal 0.999687 0 -0.0249984
    outer loop
      vertex 6.4 23.5 0.005
      vertex 6.4 27.5 0.005
      vertex 6.45 23.7 2.0045
    endloop
  endfacet
  facet normal -2.20997e-017 -0.995035 -0.0995284
    outer loop
      vertex 7.35 27.3 2.0045
      vertex 6.45 27.3 2.0045
      vertex 6.4 27.5 0.005
    endloop
  endfacet
  facet normal -2.20997e-017 -0.995035 -0.0995284
    outer loop
      vertex 7.4 27.5 0.005
      vertex 7.35 27.3 2.0045
      vertex 6.4 27.5 0.005
    endloop
  endfacet
  facet normal -0.999687 0 -0.0249984
    outer loop
      vertex 1.56 27.3 2.0045
      vertex 1.61 27.5 0.005
      vertex 1.56 23.7 2.0045
    endloop
  endfacet
  facet normal -0.999687 0 -0.0249984
    outer loop
      vertex 1.56 23.7 2.0045
      vertex 1.61 27.5 0.005
      vertex 1.61 23.5 0.005
    endloop
  endfacet
  facet normal -2.20997e-017 0.995035 -0.0995284
    outer loop
      vertex 0.66 23.7 2.0045
      vertex 1.56 23.7 2.0045
      vertex 0.61 23.5 0.005
    endloop
  endfacet
  facet normal -2.20997e-017 0.995035 -0.0995284
    outer loop
      vertex 0.61 23.5 0.005
      vertex 1.56 23.7 2.0045
      vertex 1.61 23.5 0.005
    endloop
  endfacet
  facet normal 0.999687 0 -0.0249984
    outer loop
      vertex 0.61 27.5 0.005
      vertex 0.66 27.3 2.0045
      vertex 0.66 23.7 2.0045
    endloop
  endfacet
  facet normal 0.999687 0 -0.0249984
    outer loop
      vertex 0.61 23.5 0.005
      vertex 0.61 27.5 0.005
      vertex 0.66 23.7 2.0045
    endloop
  endfacet
  facet normal -2.20997e-017 -0.995035 -0.0995284
    outer loop
      vertex 1.56 27.3 2.0045
      vertex 0.66 27.3 2.0045
      vertex 0.61 27.5 0.005
    endloop
  endfacet
  facet normal -2.20997e-017 -0.995035 -0.0995284
    outer loop
      vertex 1.61 27.5 0.005
      vertex 1.56 27.3 2.0045
      vertex 0.61 27.5 0.005
    endloop
  endfacet
  facet normal -0.995035 2.20942e-016 -0.0995284
    outer loop
      vertex -1.09 32.95 2.0045
      vertex -0.89 33 0.005
      vertex -1.09 32.05 2.0045
    endloop
  endfacet
  facet normal -0.995035 2.20942e-016 -0.0995284
    outer loop
      vertex -1.09 32.05 2.0045
      vertex -0.89 33 0.005
      vertex -0.89 32 0.005
    endloop
  endfacet
  facet normal 2.16424e-016 0.999687 -0.0249984
    outer loop
      vertex -4.69 32.05 2.0045
      vertex -1.09 32.05 2.0045
      vertex -4.89 32 0.005
    endloop
  endfacet
  facet normal 2.16424e-016 0.999687 -0.0249984
    outer loop
      vertex -4.89 32 0.005
      vertex -1.09 32.05 2.0045
      vertex -0.89 32 0.005
    endloop
  endfacet
  facet normal 0.995035 -2.20942e-016 -0.0995284
    outer loop
      vertex -4.89 33 0.005
      vertex -4.69 32.95 2.0045
      vertex -4.69 32.05 2.0045
    endloop
  endfacet
  facet normal 0.995035 -2.20942e-016 -0.0995284
    outer loop
      vertex -4.89 32 0.005
      vertex -4.89 33 0.005
      vertex -4.69 32.05 2.0045
    endloop
  endfacet
  facet normal -2.27526e-016 -0.999687 -0.0249984
    outer loop
      vertex -1.09 32.95 2.0045
      vertex -4.69 32.95 2.0045
      vertex -4.89 33 0.005
    endloop
  endfacet
  facet normal -2.27526e-016 -0.999687 -0.0249984
    outer loop
      vertex -0.89 33 0.005
      vertex -1.09 32.95 2.0045
      vertex -4.89 33 0.005
    endloop
  endfacet
  facet normal 2.22045e-016 0 1
    outer loop
      vertex 6.45 -27.3 50.9945
      vertex 7.35 -27.3 50.9945
      vertex 7.35 -23.7 50.9945
    endloop
  endfacet
  facet normal 2.22045e-016 0 1
    outer loop
      vertex 6.45 -23.7 50.9945
      vertex 6.45 -27.3 50.9945
      vertex 7.35 -23.7 50.9945
    endloop
  endfacet
  facet normal 2.22045e-016 0 1
    outer loop
      vertex 0.66 -9.3 50.9945
      vertex 1.56 -9.3 50.9945
      vertex 1.56 -5.7 50.9945
    endloop
  endfacet
  facet normal 2.22045e-016 0 1
    outer loop
      vertex 0.66 -5.7 50.9945
      vertex 0.66 -9.3 50.9945
      vertex 1.56 -5.7 50.9945
    endloop
  endfacet
  facet normal 2.22045e-016 0 1
    outer loop
      vertex 6.45 23.7 50.9945
      vertex 7.35 23.7 50.9945
      vertex 7.35 27.3 50.9945
    endloop
  endfacet
  facet normal 2.22045e-016 0 1
    outer loop
      vertex 6.45 27.3 50.9945
      vertex 6.45 23.7 50.9945
      vertex 7.35 27.3 50.9945
    endloop
  endfacet
  facet normal 2.22045e-016 0 1
    outer loop
      vertex 0.66 23.7 50.9945
      vertex 1.56 23.7 50.9945
      vertex 1.56 27.3 50.9945
    endloop
  endfacet
  facet normal 2.22045e-016 0 1
    outer loop
      vertex 0.66 27.3 50.9945
      vertex 0.66 23.7 50.9945
      vertex 1.56 27.3 50.9945
    endloop
  endfacet
  facet normal 2.22045e-016 0 1
    outer loop
      vertex -4.69 32.05 50.9945
      vertex -1.09 32.05 50.9945
      vertex -1.09 32.95 50.9945
    endloop
  endfacet
  facet normal 2.22045e-016 0 1
    outer loop
      vertex -4.69 32.95 50.9945
      vertex -4.69 32.05 50.9945
      vertex -1.09 32.95 50.9945
    endloop
  endfacet
  facet normal -2.22045e-016 0 -1
    outer loop
      vertex 6.45 -23.7 2.0045
      vertex 7.35 -23.7 2.0045
      vertex 6.45 -27.3 2.0045
    endloop
  endfacet
  facet normal -2.22045e-016 0 -1
    outer loop
      vertex 6.45 -27.3 2.0045
      vertex 7.35 -23.7 2.0045
      vertex 7.35 -27.3 2.0045
    endloop
  endfacet
  facet normal -2.22045e-016 0 -1
    outer loop
      vertex 0.66 -5.7 2.0045
      vertex 1.56 -5.7 2.0045
      vertex 0.66 -9.3 2.0045
    endloop
  endfacet
  facet normal -2.22045e-016 0 -1
    outer loop
      vertex 0.66 -9.3 2.0045
      vertex 1.56 -5.7 2.0045
      vertex 1.56 -9.3 2.0045
    endloop
  endfacet
  facet normal -2.22045e-016 0 -1
    outer loop
      vertex 6.45 27.3 2.0045
      vertex 7.35 27.3 2.0045
      vertex 6.45 23.7 2.0045
    endloop
  endfacet
  facet normal -2.22045e-016 0 -1
    outer loop
      vertex 6.45 23.7 2.0045
      vertex 7.35 27.3 2.0045
      vertex 7.35 23.7 2.0045
    endloop
  endfacet
  facet normal -2.22045e-016 0 -1
    outer loop
      vertex 0.66 27.3 2.0045
      vertex 1.56 27.3 2.0045
      vertex 0.66 23.7 2.0045
    endloop
  endfacet
  facet normal -2.22045e-016 0 -1
    outer loop
      vertex 0.66 23.7 2.0045
      vertex 1.56 27.3 2.0045
      vertex 1.56 23.7 2.0045
    endloop
  endfacet
  facet normal -2.22045e-016 0 -1
    outer loop
      vertex -4.69 32.95 2.0045
      vertex -1.09 32.95 2.0045
      vertex -4.69 32.05 2.0045
    endloop
  endfacet
  facet normal -2.22045e-016 0 -1
    outer loop
      vertex -4.69 32.05 2.0045
      vertex -1.09 32.95 2.0045
      vertex -1.09 32.05 2.0045
    endloop
  endfacet
endsolid OpenSCAD_Model
