solid OpenSCAD_Model
  facet normal 1 5.48606e-017 -2.67296e-032
    outer loop
      vertex 24.5 -7.82692 42.0027
      vertex 24.5 -7.88 41.1589
      vertex 24.5 -7.88 41
    endloop
  endfacet
  facet normal 1 5.48606e-017 -2.67296e-032
    outer loop
      vertex 24.5 0.11 48.9842
      vertex 24.5 -7.82692 42.0027
      vertex 24.5 0.11 41
    endloop
  endfacet
  facet normal 1 5.48606e-017 -2.67296e-032
    outer loop
      vertex 24.5 0.11 41
      vertex 24.5 -7.82692 42.0027
      vertex 24.5 -7.88 41
    endloop
  endfacet
  facet normal 1 5.48606e-017 -2.67296e-032
    outer loop
      vertex 24.5 -0.392324 48.9842
      vertex 24.5 -7.82692 42.0027
      vertex 24.5 0.11 48.9842
    endloop
  endfacet
  facet normal 1 5.48606e-017 -2.67296e-032
    outer loop
      vertex 24.5 -1.38905 48.8583
      vertex 24.5 -7.82692 42.0027
      vertex 24.5 -0.392324 48.9842
    endloop
  endfacet
  facet normal 1 5.48606e-017 -2.67296e-032
    outer loop
      vertex 24.5 -2.36214 48.6085
      vertex 24.5 -7.82692 42.0027
      vertex 24.5 -1.38905 48.8583
    endloop
  endfacet
  facet normal 1 5.48606e-017 -2.67296e-032
    outer loop
      vertex 24.5 -3.29623 48.2386
      vertex 24.5 -7.82692 42.0027
      vertex 24.5 -2.36214 48.6085
    endloop
  endfacet
  facet normal 1 5.48606e-017 -2.67296e-032
    outer loop
      vertex 24.5 -4.17661 47.7546
      vertex 24.5 -7.82692 42.0027
      vertex 24.5 -3.29623 48.2386
    endloop
  endfacet
  facet normal 1 5.48606e-017 -2.67296e-032
    outer loop
      vertex 24.5 -4.98939 47.1641
      vertex 24.5 -7.82692 42.0027
      vertex 24.5 -4.17661 47.7546
    endloop
  endfacet
  facet normal 1 5.48606e-017 -2.67296e-032
    outer loop
      vertex 24.5 -5.72175 46.4764
      vertex 24.5 -7.82692 42.0027
      vertex 24.5 -4.98939 47.1641
    endloop
  endfacet
  facet normal 1 5.48606e-017 -2.67296e-032
    outer loop
      vertex 24.5 -6.36214 45.7023
      vertex 24.5 -7.82692 42.0027
      vertex 24.5 -5.72175 46.4764
    endloop
  endfacet
  facet normal 1 5.48606e-017 -2.67296e-032
    outer loop
      vertex 24.5 -6.90045 44.854
      vertex 24.5 -7.82692 42.0027
      vertex 24.5 -6.36214 45.7023
    endloop
  endfacet
  facet normal 1 5.48606e-017 -2.67296e-032
    outer loop
      vertex 24.5 -7.32821 43.945
      vertex 24.5 -7.82692 42.0027
      vertex 24.5 -6.90045 44.854
    endloop
  endfacet
  facet normal 1 5.48606e-017 -2.67296e-032
    outer loop
      vertex 24.5 -7.63867 42.9895
      vertex 24.5 -7.82692 42.0027
      vertex 24.5 -7.32821 43.945
    endloop
  endfacet
  facet normal -1.22461e-016 -1 1.36718e-016
    outer loop
      vertex 24.5 -7.88 41
      vertex 24.5 -7.88 41.1589
      vertex 22.5 -7.88 41.1589
    endloop
  endfacet
  facet normal -1.22461e-016 -1 1.36718e-016
    outer loop
      vertex 22.5 -7.88 41
      vertex 24.5 -7.88 41
      vertex 22.5 -7.88 41.1589
    endloop
  endfacet
  facet normal 9.93875e-017 -0.998027 0.0627901
    outer loop
      vertex 22.5 -7.88 41.1589
      vertex 24.5 -7.88 41.1589
      vertex 24.5 -7.82692 42.0027
    endloop
  endfacet
  facet normal 9.93875e-017 -0.998027 0.0627901
    outer loop
      vertex 22.5 -7.82692 42.0027
      vertex 22.5 -7.88 41.1589
      vertex 24.5 -7.82692 42.0027
    endloop
  endfacet
  facet normal 9.78201e-017 -0.982287 0.187382
    outer loop
      vertex 22.5 -7.82692 42.0027
      vertex 24.5 -7.82692 42.0027
      vertex 24.5 -7.63867 42.9895
    endloop
  endfacet
  facet normal 9.78201e-017 -0.982287 0.187382
    outer loop
      vertex 22.5 -7.63867 42.9895
      vertex 22.5 -7.82692 42.0027
      vertex 24.5 -7.63867 42.9895
    endloop
  endfacet
  facet normal 9.471e-017 -0.951057 0.309017
    outer loop
      vertex 22.5 -7.63867 42.9895
      vertex 24.5 -7.63867 42.9895
      vertex 24.5 -7.32821 43.945
    endloop
  endfacet
  facet normal 9.471e-017 -0.951057 0.309017
    outer loop
      vertex 22.5 -7.32821 43.945
      vertex 22.5 -7.63867 42.9895
      vertex 24.5 -7.32821 43.945
    endloop
  endfacet
  facet normal 9.01062e-017 -0.904827 0.42578
    outer loop
      vertex 22.5 -7.32821 43.945
      vertex 24.5 -7.32821 43.945
      vertex 24.5 -6.90045 44.854
    endloop
  endfacet
  facet normal 9.01062e-017 -0.904827 0.42578
    outer loop
      vertex 22.5 -6.90045 44.854
      vertex 22.5 -7.32821 43.945
      vertex 24.5 -6.90045 44.854
    endloop
  endfacet
  facet normal 8.40816e-017 -0.844328 0.535826
    outer loop
      vertex 22.5 -6.90045 44.854
      vertex 24.5 -6.90045 44.854
      vertex 24.5 -6.36214 45.7023
    endloop
  endfacet
  facet normal 8.40816e-017 -0.844328 0.535826
    outer loop
      vertex 22.5 -6.36214 45.7023
      vertex 22.5 -6.90045 44.854
      vertex 24.5 -6.36214 45.7023
    endloop
  endfacet
  facet normal 7.67308e-017 -0.770513 0.637424
    outer loop
      vertex 22.5 -6.36214 45.7023
      vertex 24.5 -6.36214 45.7023
      vertex 24.5 -5.72175 46.4764
    endloop
  endfacet
  facet normal 7.67308e-017 -0.770513 0.637424
    outer loop
      vertex 22.5 -5.72175 46.4764
      vertex 22.5 -6.36214 45.7023
      vertex 24.5 -5.72175 46.4764
    endloop
  endfacet
  facet normal 6.81699e-017 -0.684547 0.728969
    outer loop
      vertex 22.5 -5.72175 46.4764
      vertex 24.5 -5.72175 46.4764
      vertex 24.5 -4.98939 47.1641
    endloop
  endfacet
  facet normal 6.81699e-017 -0.684547 0.728969
    outer loop
      vertex 22.5 -4.98939 47.1641
      vertex 22.5 -5.72175 46.4764
      vertex 24.5 -4.98939 47.1641
    endloop
  endfacet
  facet normal 5.85339e-017 -0.587785 0.809017
    outer loop
      vertex 22.5 -4.98939 47.1641
      vertex 24.5 -4.98939 47.1641
      vertex 24.5 -4.17661 47.7546
    endloop
  endfacet
  facet normal 5.85339e-017 -0.587785 0.809017
    outer loop
      vertex 22.5 -4.17661 47.7546
      vertex 22.5 -4.98939 47.1641
      vertex 24.5 -4.17661 47.7546
    endloop
  endfacet
  facet normal 4.79749e-017 -0.481754 0.876307
    outer loop
      vertex 22.5 -4.17661 47.7546
      vertex 24.5 -4.17661 47.7546
      vertex 24.5 -3.29623 48.2386
    endloop
  endfacet
  facet normal 4.79749e-017 -0.481754 0.876307
    outer loop
      vertex 22.5 -3.29623 48.2386
      vertex 22.5 -4.17661 47.7546
      vertex 24.5 -3.29623 48.2386
    endloop
  endfacet
  facet normal 3.66593e-017 -0.368125 0.929776
    outer loop
      vertex 22.5 -3.29623 48.2386
      vertex 24.5 -3.29623 48.2386
      vertex 24.5 -2.36214 48.6085
    endloop
  endfacet
  facet normal 3.66593e-017 -0.368125 0.929776
    outer loop
      vertex 22.5 -2.36214 48.6085
      vertex 22.5 -3.29623 48.2386
      vertex 24.5 -2.36214 48.6085
    endloop
  endfacet
  facet normal 2.47655e-017 -0.24869 0.968583
    outer loop
      vertex 22.5 -2.36214 48.6085
      vertex 24.5 -2.36214 48.6085
      vertex 24.5 -1.38905 48.8583
    endloop
  endfacet
  facet normal 2.47655e-017 -0.24869 0.968583
    outer loop
      vertex 22.5 -1.38905 48.8583
      vertex 22.5 -2.36214 48.6085
      vertex 24.5 -1.38905 48.8583
    endloop
  endfacet
  facet normal 1.24812e-017 -0.125333 0.992115
    outer loop
      vertex 22.5 -1.38905 48.8583
      vertex 24.5 -1.38905 48.8583
      vertex 24.5 -0.392324 48.9842
    endloop
  endfacet
  facet normal 1.24812e-017 -0.125333 0.992115
    outer loop
      vertex 22.5 -0.392324 48.9842
      vertex 22.5 -1.38905 48.8583
      vertex 24.5 -0.392324 48.9842
    endloop
  endfacet
  facet normal 2.71917e-032 2.22045e-016 1
    outer loop
      vertex 22.5 -0.392324 48.9842
      vertex 24.5 -0.392324 48.9842
      vertex 24.5 0.11 48.9842
    endloop
  endfacet
  facet normal 2.71917e-032 2.22045e-016 1
    outer loop
      vertex 22.5 0.11 48.9842
      vertex 22.5 -0.392324 48.9842
      vertex 24.5 0.11 48.9842
    endloop
  endfacet
  facet normal -1.22461e-016 -1 1.36718e-016
    outer loop
      vertex 24.5 0.11 48.9842
      vertex 24.5 0.11 49
      vertex -24.5 0.11 49
    endloop
  endfacet
  facet normal -1.22461e-016 -1 1.36718e-016
    outer loop
      vertex 22.5 0.11 48.9842
      vertex 24.5 0.11 48.9842
      vertex -24.5 0.11 49
    endloop
  endfacet
  facet normal -1.22461e-016 -1 1.36718e-016
    outer loop
      vertex -22.5 0.11 48.9842
      vertex 22.5 0.11 48.9842
      vertex -24.5 0.11 49
    endloop
  endfacet
  facet normal -1.22461e-016 -1 1.36718e-016
    outer loop
      vertex -24.5 0.11 48.9842
      vertex -22.5 0.11 48.9842
      vertex -24.5 0.11 49
    endloop
  endfacet
  facet normal -1.22461e-016 -1 1.36718e-016
    outer loop
      vertex -22.5 0.11 2
      vertex 22.5 0.11 2
      vertex 22.5 0.11 41
    endloop
  endfacet
  facet normal -1.22461e-016 -1 1.36718e-016
    outer loop
      vertex -22.5 0.11 41
      vertex 22.5 0.11 48.9842
      vertex -22.5 0.11 48.9842
    endloop
  endfacet
  facet normal -1.22461e-016 -1 1.36718e-016
    outer loop
      vertex 22.5 0.11 41
      vertex -22.5 0.11 41
      vertex -22.5 0.11 2
    endloop
  endfacet
  facet normal -1.22461e-016 -1 1.36718e-016
    outer loop
      vertex 22.5 0.11 41
      vertex 22.5 0.11 48.9842
      vertex -22.5 0.11 41
    endloop
  endfacet
  facet normal 1 -1.22461e-016 -2.48665e-033
    outer loop
      vertex 24.5 6.4 61
      vertex 24.5 7.9 67
      vertex 24.5 5.9 67
    endloop
  endfacet
  facet normal 1 -1.22461e-016 -2.48665e-033
    outer loop
      vertex 24.5 5.9 63.2
      vertex 24.5 7.9 0
      vertex 24.5 5.9 66.9925
    endloop
  endfacet
  facet normal 1 -1.22461e-016 -2.48665e-033
    outer loop
      vertex 24.5 5.9 66.9925
      vertex 24.5 7.9 0
      vertex 24.5 5.9 67
    endloop
  endfacet
  facet normal 1 -1.22461e-016 -2.48665e-033
    outer loop
      vertex 24.5 7.4 10
      vertex 24.5 7.9 0
      vertex 24.5 5.9 63.2
    endloop
  endfacet
  facet normal 1 -1.22461e-016 -2.48665e-033
    outer loop
      vertex 24.5 -4.89 1.5
      vertex 24.5 -0.89 1.5
      vertex 24.5 -7.89 2
    endloop
  endfacet
  facet normal 1 -1.22461e-016 -2.48665e-033
    outer loop
      vertex 24.5 6.4 6
      vertex 24.5 1.61 39
      vertex 24.5 0.61 39
    endloop
  endfacet
  facet normal 1 -1.22461e-016 -2.48665e-033
    outer loop
      vertex 24.5 6.4 6
      vertex 24.5 6.4 10
      vertex 24.5 1.61 39
    endloop
  endfacet
  facet normal 1 -1.22461e-016 -2.48665e-033
    outer loop
      vertex 24.5 6.4 10
      vertex 24.5 2.1 63.2
      vertex 24.5 2.1 49
    endloop
  endfacet
  facet normal 1 -1.22461e-016 -2.48665e-033
    outer loop
      vertex 24.5 -7.89 41
      vertex 24.5 7.9 0
      vertex 24.5 -7.88 41
    endloop
  endfacet
  facet normal 1 -1.22461e-016 -2.48665e-033
    outer loop
      vertex 24.5 1.61 10
      vertex 24.5 7.9 0
      vertex 24.5 -7.89 41
    endloop
  endfacet
  facet normal 1 -1.22461e-016 -2.48665e-033
    outer loop
      vertex 24.5 -0.89 1.5
      vertex 24.5 -0.89 0.5
      vertex 24.5 7.9 0
    endloop
  endfacet
  facet normal 1 -1.22461e-016 -2.48665e-033
    outer loop
      vertex 24.5 6.4 57
      vertex 24.5 6.4 61
      vertex 24.5 5.9 67
    endloop
  endfacet
  facet normal 1 -1.22461e-016 -2.48665e-033
    outer loop
      vertex 24.5 7.4 61
      vertex 24.5 7.9 67
      vertex 24.5 6.4 61
    endloop
  endfacet
  facet normal 1 -1.22461e-016 -2.48665e-033
    outer loop
      vertex 24.5 7.9 0
      vertex 24.5 7.9 67
      vertex 24.5 7.4 61
    endloop
  endfacet
  facet normal 1 -1.22461e-016 -2.48665e-033
    outer loop
      vertex 24.5 1.61 43
      vertex 24.5 1.61 39
      vertex 24.5 6.4 10
    endloop
  endfacet
  facet normal 1 -1.22461e-016 -2.48665e-033
    outer loop
      vertex 24.5 7.9 0
      vertex 24.5 7.4 61
      vertex 24.5 7.4 57
    endloop
  endfacet
  facet normal 1 -1.22461e-016 -2.48665e-033
    outer loop
      vertex 24.5 7.9 0
      vertex 24.5 6.4 57
      vertex 24.5 5.9 67
    endloop
  endfacet
  facet normal 1 -1.22461e-016 -2.48665e-033
    outer loop
      vertex 24.5 1.61 10
      vertex 24.5 1.61 6
      vertex 24.5 7.9 0
    endloop
  endfacet
  facet normal 1 -1.22461e-016 -2.48665e-033
    outer loop
      vertex 24.5 0.11 41
      vertex 24.5 0.61 43
      vertex 24.5 0.11 48.9842
    endloop
  endfacet
  facet normal 1 -1.22461e-016 -2.48665e-033
    outer loop
      vertex 24.5 0.11 49
      vertex 24.5 1.61 43
      vertex 24.5 2.1 49
    endloop
  endfacet
  facet normal 1 -1.22461e-016 -2.48665e-033
    outer loop
      vertex 24.5 6.4 10
      vertex 24.5 2.11 63.2
      vertex 24.5 2.1 63.2
    endloop
  endfacet
  facet normal 1 -1.22461e-016 -2.48665e-033
    outer loop
      vertex 24.5 6.4 6
      vertex 24.5 0.61 39
      vertex 24.5 0.11 41
    endloop
  endfacet
  facet normal 1 -1.22461e-016 -2.48665e-033
    outer loop
      vertex 24.5 0.11 41
      vertex 24.5 0.61 39
      vertex 24.5 0.61 43
    endloop
  endfacet
  facet normal 1 -1.22461e-016 -2.48665e-033
    outer loop
      vertex 24.5 6.4 10
      vertex 24.5 2.1 49
      vertex 24.5 1.61 43
    endloop
  endfacet
  facet normal 1 -1.22461e-016 -2.48665e-033
    outer loop
      vertex 24.5 2.11 63.2
      vertex 24.5 7.4 10
      vertex 24.5 5.9 63.2
    endloop
  endfacet
  facet normal 1 -1.22461e-016 -2.48665e-033
    outer loop
      vertex 24.5 7.4 6
      vertex 24.5 7.9 0
      vertex 24.5 7.4 10
    endloop
  endfacet
  facet normal 1 -1.22461e-016 -2.48665e-033
    outer loop
      vertex 24.5 7.4 6
      vertex 24.5 6.4 6
      vertex 24.5 7.9 0
    endloop
  endfacet
  facet normal 1 -1.22461e-016 -2.48665e-033
    outer loop
      vertex 24.5 -7.88 41
      vertex 24.5 6.4 6
      vertex 24.5 0.11 41
    endloop
  endfacet
  facet normal 1 -1.22461e-016 -2.48665e-033
    outer loop
      vertex 24.5 -7.88 41
      vertex 24.5 7.9 0
      vertex 24.5 6.4 6
    endloop
  endfacet
  facet normal 1 -1.22461e-016 -2.48665e-033
    outer loop
      vertex 24.5 -7.89 2
      vertex 24.5 0.61 10
      vertex 24.5 -7.89 41
    endloop
  endfacet
  facet normal 1 -1.22461e-016 -2.48665e-033
    outer loop
      vertex 24.5 0.61 10
      vertex 24.5 1.61 10
      vertex 24.5 -7.89 41
    endloop
  endfacet
  facet normal 1 -1.22461e-016 -2.48665e-033
    outer loop
      vertex 24.5 -0.89 1.5
      vertex 24.5 7.9 0
      vertex 24.5 1.61 6
    endloop
  endfacet
  facet normal 1 -1.22461e-016 -2.48665e-033
    outer loop
      vertex 24.5 -7.89 2
      vertex 24.5 0.61 6
      vertex 24.5 0.61 10
    endloop
  endfacet
  facet normal 1 -1.22461e-016 -2.48665e-033
    outer loop
      vertex 24.5 -7.89 2
      vertex 24.5 1.61 6
      vertex 24.5 0.61 6
    endloop
  endfacet
  facet normal 1 -1.22461e-016 -2.48665e-033
    outer loop
      vertex 24.5 -7.89 3.50608e-015
      vertex 24.5 -4.89 1.5
      vertex 24.5 -7.89 2
    endloop
  endfacet
  facet normal 1 -1.22461e-016 -2.48665e-033
    outer loop
      vertex 24.5 -7.89 2
      vertex 24.5 -0.89 1.5
      vertex 24.5 1.61 6
    endloop
  endfacet
  facet normal 1 -1.22461e-016 -2.48665e-033
    outer loop
      vertex 24.5 -7.89 3.50608e-015
      vertex 24.5 7.9 0
      vertex 24.5 -0.89 0.5
    endloop
  endfacet
  facet normal 1 -1.22461e-016 -2.48665e-033
    outer loop
      vertex 24.5 -7.89 3.50608e-015
      vertex 24.5 -4.89 0.5
      vertex 24.5 -4.89 1.5
    endloop
  endfacet
  facet normal 1 -1.22461e-016 -2.48665e-033
    outer loop
      vertex 24.5 -7.89 3.50608e-015
      vertex 24.5 -0.89 0.5
      vertex 24.5 -4.89 0.5
    endloop
  endfacet
  facet normal 1 -1.22461e-016 -2.48665e-033
    outer loop
      vertex 24.5 7.4 57
      vertex 24.5 6.4 57
      vertex 24.5 7.9 0
    endloop
  endfacet
  facet normal 1 -1.22461e-016 -2.48665e-033
    outer loop
      vertex 24.5 0.61 43
      vertex 24.5 0.11 49
      vertex 24.5 0.11 48.9842
    endloop
  endfacet
  facet normal 1 -1.22461e-016 -2.48665e-033
    outer loop
      vertex 24.5 0.61 43
      vertex 24.5 1.61 43
      vertex 24.5 0.11 49
    endloop
  endfacet
  facet normal 1 -1.22461e-016 -2.48665e-033
    outer loop
      vertex 24.5 6.4 10
      vertex 24.5 7.4 10
      vertex 24.5 2.11 63.2
    endloop
  endfacet
  facet normal 2.71917e-032 2.22045e-016 1
    outer loop
      vertex 24.5 -7.89 41
      vertex 24.5 -7.88 41
      vertex 22.5 -7.88 41
    endloop
  endfacet
  facet normal 2.71917e-032 2.22045e-016 1
    outer loop
      vertex 22.5 -7.89 41
      vertex 24.5 -7.89 41
      vertex 22.5 -7.88 41
    endloop
  endfacet
  facet normal 2.71917e-032 2.22045e-016 1
    outer loop
      vertex 22.5 0.11 41
      vertex 22.5 -7.89 41
      vertex 22.5 -7.88 41
    endloop
  endfacet
  facet normal -1 -5.48606e-017 2.67296e-032
    outer loop
      vertex 22.5 -7.88 41.1589
      vertex 22.5 -7.82692 42.0027
      vertex 22.5 -7.88 41
    endloop
  endfacet
  facet normal -1 -5.48606e-017 2.67296e-032
    outer loop
      vertex 22.5 -7.88 41
      vertex 22.5 -7.82692 42.0027
      vertex 22.5 -7.63867 42.9895
    endloop
  endfacet
  facet normal -1 -5.48606e-017 2.67296e-032
    outer loop
      vertex 22.5 -7.88 41
      vertex 22.5 -7.63867 42.9895
      vertex 22.5 -7.32821 43.945
    endloop
  endfacet
  facet normal -1 -5.48606e-017 2.67296e-032
    outer loop
      vertex 22.5 -7.88 41
      vertex 22.5 -7.32821 43.945
      vertex 22.5 -6.90045 44.854
    endloop
  endfacet
  facet normal -1 -5.48606e-017 2.67296e-032
    outer loop
      vertex 22.5 -7.88 41
      vertex 22.5 -6.90045 44.854
      vertex 22.5 -6.36214 45.7023
    endloop
  endfacet
  facet normal -1 -5.48606e-017 2.67296e-032
    outer loop
      vertex 22.5 -7.88 41
      vertex 22.5 -6.36214 45.7023
      vertex 22.5 -5.72175 46.4764
    endloop
  endfacet
  facet normal -1 -5.48606e-017 2.67296e-032
    outer loop
      vertex 22.5 -7.88 41
      vertex 22.5 -5.72175 46.4764
      vertex 22.5 -4.98939 47.1641
    endloop
  endfacet
  facet normal -1 -5.48606e-017 2.67296e-032
    outer loop
      vertex 22.5 -7.88 41
      vertex 22.5 -4.98939 47.1641
      vertex 22.5 -4.17661 47.7546
    endloop
  endfacet
  facet normal -1 -5.48606e-017 2.67296e-032
    outer loop
      vertex 22.5 -7.88 41
      vertex 22.5 -4.17661 47.7546
      vertex 22.5 -3.29623 48.2386
    endloop
  endfacet
  facet normal -1 -5.48606e-017 2.67296e-032
    outer loop
      vertex 22.5 -7.88 41
      vertex 22.5 -3.29623 48.2386
      vertex 22.5 -2.36214 48.6085
    endloop
  endfacet
  facet normal -1 -5.48606e-017 2.67296e-032
    outer loop
      vertex 22.5 -7.88 41
      vertex 22.5 -2.36214 48.6085
      vertex 22.5 -1.38905 48.8583
    endloop
  endfacet
  facet normal -1 -5.48606e-017 2.67296e-032
    outer loop
      vertex 22.5 -7.88 41
      vertex 22.5 -1.38905 48.8583
      vertex 22.5 -0.392324 48.9842
    endloop
  endfacet
  facet normal -1 -5.48606e-017 2.67296e-032
    outer loop
      vertex 22.5 -7.88 41
      vertex 22.5 -0.392324 48.9842
      vertex 22.5 0.11 48.9842
    endloop
  endfacet
  facet normal -1 -5.48606e-017 2.67296e-032
    outer loop
      vertex 22.5 -7.88 41
      vertex 22.5 0.11 48.9842
      vertex 22.5 0.11 41
    endloop
  endfacet
  facet normal -1 1.22461e-016 2.48665e-033
    outer loop
      vertex 22.5 0.11 41
      vertex 22.5 0.11 2
      vertex 22.5 -7.89 2
    endloop
  endfacet
  facet normal -1 1.22461e-016 2.48665e-033
    outer loop
      vertex 22.5 0.11 41
      vertex 22.5 -7.89 2
      vertex 22.5 -7.89 41
    endloop
  endfacet
  facet normal 2.71917e-032 2.22045e-016 1
    outer loop
      vertex -22.5 -7.89 2
      vertex 24.5 -7.89 2
      vertex 22.5 -7.89 2
    endloop
  endfacet
  facet normal 2.71917e-032 2.22045e-016 1
    outer loop
      vertex 22.5 0.11 2
      vertex -22.5 0.11 2
      vertex 22.5 -7.89 2
    endloop
  endfacet
  facet normal 2.71917e-032 2.22045e-016 1
    outer loop
      vertex -22.5 0.11 2
      vertex -22.5 -7.89 2
      vertex 22.5 -7.89 2
    endloop
  endfacet
  facet normal 2.71917e-032 2.22045e-016 1
    outer loop
      vertex -22.5 -7.89 2
      vertex -24.5 -7.89 2
      vertex 24.5 -7.89 2
    endloop
  endfacet
  facet normal 1 -1.22461e-016 -2.48665e-033
    outer loop
      vertex -22.5 0.11 2
      vertex -22.5 0.11 41
      vertex -22.5 -7.88 41
    endloop
  endfacet
  facet normal 1 -1.22461e-016 -2.48665e-033
    outer loop
      vertex -22.5 -7.89 2
      vertex -22.5 0.11 2
      vertex -22.5 -7.89 41
    endloop
  endfacet
  facet normal 1 -1.22461e-016 -2.48665e-033
    outer loop
      vertex -22.5 -7.89 41
      vertex -22.5 0.11 2
      vertex -22.5 -7.88 41
    endloop
  endfacet
  facet normal 1 5.48606e-017 -2.67296e-032
    outer loop
      vertex -22.5 -7.82692 42.0027
      vertex -22.5 -7.88 41.1589
      vertex -22.5 -7.88 41
    endloop
  endfacet
  facet normal 1 5.48606e-017 -2.67296e-032
    outer loop
      vertex -22.5 0.11 48.9842
      vertex -22.5 -7.82692 42.0027
      vertex -22.5 0.11 41
    endloop
  endfacet
  facet normal 1 5.48606e-017 -2.67296e-032
    outer loop
      vertex -22.5 0.11 41
      vertex -22.5 -7.82692 42.0027
      vertex -22.5 -7.88 41
    endloop
  endfacet
  facet normal 1 5.48606e-017 -2.67296e-032
    outer loop
      vertex -22.5 -0.392324 48.9842
      vertex -22.5 -7.82692 42.0027
      vertex -22.5 0.11 48.9842
    endloop
  endfacet
  facet normal 1 5.48606e-017 -2.67296e-032
    outer loop
      vertex -22.5 -1.38905 48.8583
      vertex -22.5 -7.82692 42.0027
      vertex -22.5 -0.392324 48.9842
    endloop
  endfacet
  facet normal 1 5.48606e-017 -2.67296e-032
    outer loop
      vertex -22.5 -2.36214 48.6085
      vertex -22.5 -7.82692 42.0027
      vertex -22.5 -1.38905 48.8583
    endloop
  endfacet
  facet normal 1 5.48606e-017 -2.67296e-032
    outer loop
      vertex -22.5 -3.29623 48.2386
      vertex -22.5 -7.82692 42.0027
      vertex -22.5 -2.36214 48.6085
    endloop
  endfacet
  facet normal 1 5.48606e-017 -2.67296e-032
    outer loop
      vertex -22.5 -4.17661 47.7546
      vertex -22.5 -7.82692 42.0027
      vertex -22.5 -3.29623 48.2386
    endloop
  endfacet
  facet normal 1 5.48606e-017 -2.67296e-032
    outer loop
      vertex -22.5 -4.98939 47.1641
      vertex -22.5 -7.82692 42.0027
      vertex -22.5 -4.17661 47.7546
    endloop
  endfacet
  facet normal 1 5.48606e-017 -2.67296e-032
    outer loop
      vertex -22.5 -5.72175 46.4764
      vertex -22.5 -7.82692 42.0027
      vertex -22.5 -4.98939 47.1641
    endloop
  endfacet
  facet normal 1 5.48606e-017 -2.67296e-032
    outer loop
      vertex -22.5 -6.36214 45.7023
      vertex -22.5 -7.82692 42.0027
      vertex -22.5 -5.72175 46.4764
    endloop
  endfacet
  facet normal 1 5.48606e-017 -2.67296e-032
    outer loop
      vertex -22.5 -6.90045 44.854
      vertex -22.5 -7.82692 42.0027
      vertex -22.5 -6.36214 45.7023
    endloop
  endfacet
  facet normal 1 5.48606e-017 -2.67296e-032
    outer loop
      vertex -22.5 -7.32821 43.945
      vertex -22.5 -7.82692 42.0027
      vertex -22.5 -6.90045 44.854
    endloop
  endfacet
  facet normal 1 5.48606e-017 -2.67296e-032
    outer loop
      vertex -22.5 -7.63866 42.9895
      vertex -22.5 -7.82692 42.0027
      vertex -22.5 -7.32821 43.945
    endloop
  endfacet
  facet normal 2.71917e-032 2.22045e-016 1
    outer loop
      vertex -24.5 -0.392324 48.9842
      vertex -22.5 -0.392324 48.9842
      vertex -22.5 0.11 48.9842
    endloop
  endfacet
  facet normal 2.71917e-032 2.22045e-016 1
    outer loop
      vertex -24.5 0.12 48.9842
      vertex -24.5 -0.392324 48.9842
      vertex -24.5 0.11 48.9842
    endloop
  endfacet
  facet normal 2.71917e-032 2.22045e-016 1
    outer loop
      vertex -24.5 0.11 48.9842
      vertex -24.5 -0.392324 48.9842
      vertex -22.5 0.11 48.9842
    endloop
  endfacet
  facet normal -1 1.22461e-016 2.48665e-033
    outer loop
      vertex -24.5 5.9 66.9925
      vertex -24.5 5.9 67
      vertex -24.5 5.91 66.9925
    endloop
  endfacet
  facet normal -1 1.22461e-016 2.48665e-033
    outer loop
      vertex -24.5 5.9 63.2
      vertex -24.5 7.9 0
      vertex -24.5 -7.89 3.50608e-015
    endloop
  endfacet
  facet normal -1 1.22461e-016 2.48665e-033
    outer loop
      vertex -24.5 2.1 49
      vertex -24.5 -7.89 3.50608e-015
      vertex -24.5 -7.89 2
    endloop
  endfacet
  facet normal -1 1.22461e-016 2.48665e-033
    outer loop
      vertex -24.5 2.1 49
      vertex -24.5 0.11 48.9842
      vertex -24.5 0.11 49
    endloop
  endfacet
  facet normal -1 1.22461e-016 2.48665e-033
    outer loop
      vertex -24.5 2.1 49
      vertex -24.5 0.12 48.9842
      vertex -24.5 0.11 48.9842
    endloop
  endfacet
  facet normal -1 1.22461e-016 2.48665e-033
    outer loop
      vertex -24.5 2.1 49
      vertex -24.5 0.12 41
      vertex -24.5 0.12 48.9842
    endloop
  endfacet
  facet normal -1 1.22461e-016 2.48665e-033
    outer loop
      vertex -24.5 2.1 49
      vertex -24.5 -7.89 2
      vertex -24.5 0.12 41
    endloop
  endfacet
  facet normal -1 1.22461e-016 2.48665e-033
    outer loop
      vertex -24.5 5.9 63.2
      vertex -24.5 2.1 49
      vertex -24.5 2.1 63.2
    endloop
  endfacet
  facet normal -1 1.22461e-016 2.48665e-033
    outer loop
      vertex -24.5 5.9 63.2
      vertex -24.5 -7.89 3.50608e-015
      vertex -24.5 2.1 49
    endloop
  endfacet
  facet normal -1 1.22461e-016 2.48665e-033
    outer loop
      vertex -24.5 5.91 63.2
      vertex -24.5 7.9 0
      vertex -24.5 5.9 63.2
    endloop
  endfacet
  facet normal -1 1.22461e-016 2.48665e-033
    outer loop
      vertex -24.5 5.91 66.9925
      vertex -24.5 7.9 0
      vertex -24.5 5.91 63.2
    endloop
  endfacet
  facet normal -1 1.22461e-016 2.48665e-033
    outer loop
      vertex -24.5 7.9 67
      vertex -24.5 7.9 0
      vertex -24.5 5.91 66.9925
    endloop
  endfacet
  facet normal -1 1.22461e-016 2.48665e-033
    outer loop
      vertex -24.5 7.9 67
      vertex -24.5 5.91 66.9925
      vertex -24.5 5.9 67
    endloop
  endfacet
  facet normal -1 1.22461e-016 2.48665e-033
    outer loop
      vertex -24.5 0.11 41
      vertex -24.5 0.12 41
      vertex -24.5 -7.89 2
    endloop
  endfacet
  facet normal -1 1.22461e-016 2.48665e-033
    outer loop
      vertex -24.5 -7.89 41
      vertex -24.5 0.11 41
      vertex -24.5 -7.89 2
    endloop
  endfacet
  facet normal 2.71917e-032 2.22045e-016 1
    outer loop
      vertex -22.5 2.1 49
      vertex -24.5 2.1 49
      vertex 24.5 0.11 49
    endloop
  endfacet
  facet normal 2.71917e-032 2.22045e-016 1
    outer loop
      vertex 24.5 0.11 49
      vertex 24.5 2.1 49
      vertex 22.5 2.1 49
    endloop
  endfacet
  facet normal 2.71917e-032 2.22045e-016 1
    outer loop
      vertex -22.5 2.11 49
      vertex 24.5 0.11 49
      vertex 22.5 2.1 49
    endloop
  endfacet
  facet normal 2.71917e-032 2.22045e-016 1
    outer loop
      vertex 22.5 2.11 49
      vertex -22.5 2.11 49
      vertex 22.5 2.1 49
    endloop
  endfacet
  facet normal 2.71917e-032 2.22045e-016 1
    outer loop
      vertex -22.5 2.11 49
      vertex -22.5 2.1 49
      vertex 24.5 0.11 49
    endloop
  endfacet
  facet normal 2.71917e-032 2.22045e-016 1
    outer loop
      vertex -24.5 2.1 49
      vertex -24.5 0.11 49
      vertex 24.5 0.11 49
    endloop
  endfacet
  facet normal 1.22461e-016 1 -1.36718e-016
    outer loop
      vertex 24.5 7.9 67
      vertex 24.5 7.9 0
      vertex -24.5 7.9 67
    endloop
  endfacet
  facet normal 1.22461e-016 1 -1.36718e-016
    outer loop
      vertex -24.5 7.9 67
      vertex 24.5 7.9 0
      vertex -24.5 7.9 0
    endloop
  endfacet
  facet normal -2.71917e-032 -2.22045e-016 -1
    outer loop
      vertex 24.5 7.9 0
      vertex 24.5 -7.89 3.50608e-015
      vertex -24.5 7.9 0
    endloop
  endfacet
  facet normal -2.71917e-032 -2.22045e-016 -1
    outer loop
      vertex -24.5 7.9 0
      vertex 24.5 -7.89 3.50608e-015
      vertex -24.5 -7.89 3.50608e-015
    endloop
  endfacet
  facet normal -1.22461e-016 -1 1.36718e-016
    outer loop
      vertex 24.5 -7.89 3.50608e-015
      vertex 24.5 -7.89 2
      vertex -24.5 -7.89 2
    endloop
  endfacet
  facet normal -1.22461e-016 -1 1.36718e-016
    outer loop
      vertex -24.5 -7.89 3.50608e-015
      vertex 24.5 -7.89 3.50608e-015
      vertex -24.5 -7.89 2
    endloop
  endfacet
  facet normal -1.22461e-016 -1 1.36718e-016
    outer loop
      vertex 24.5 -7.89 2
      vertex 24.5 -7.89 41
      vertex 22.5 -7.89 41
    endloop
  endfacet
  facet normal -1.22461e-016 -1 1.36718e-016
    outer loop
      vertex 22.5 -7.89 2
      vertex 24.5 -7.89 2
      vertex 22.5 -7.89 41
    endloop
  endfacet
  facet normal -1.22461e-016 -1 1.36718e-016
    outer loop
      vertex 24.5 2.1 49
      vertex 24.5 2.1 63.2
      vertex 22.5 2.1 63.2
    endloop
  endfacet
  facet normal -1.22461e-016 -1 1.36718e-016
    outer loop
      vertex 22.5 2.1 49
      vertex 24.5 2.1 49
      vertex 22.5 2.1 63.2
    endloop
  endfacet
  facet normal 2.71917e-032 2.22045e-016 1
    outer loop
      vertex 24.5 2.1 63.2
      vertex 24.5 2.11 63.2
      vertex 22.5 2.11 63.2
    endloop
  endfacet
  facet normal 2.71917e-032 2.22045e-016 1
    outer loop
      vertex 22.5 2.1 63.2
      vertex 24.5 2.1 63.2
      vertex 22.5 2.11 63.2
    endloop
  endfacet
  facet normal 2.71917e-032 2.22045e-016 1
    outer loop
      vertex 22.5 5.9 63.2
      vertex 22.5 2.1 63.2
      vertex 22.5 2.11 63.2
    endloop
  endfacet
  facet normal -1.22461e-016 -1 1.36718e-016
    outer loop
      vertex 24.5 2.11 63.2
      vertex 24.5 2.11 63.3589
      vertex 22.5 2.11 63.3589
    endloop
  endfacet
  facet normal -1.22461e-016 -1 1.36718e-016
    outer loop
      vertex 22.5 2.11 63.2
      vertex 24.5 2.11 63.2
      vertex 22.5 2.11 63.3589
    endloop
  endfacet
  facet normal 1 5.48606e-017 -2.67296e-032
    outer loop
      vertex 24.5 2.12996 63.6763
      vertex 24.5 2.11 63.3589
      vertex 24.5 2.11 63.2
    endloop
  endfacet
  facet normal 1 5.48606e-017 -2.67296e-032
    outer loop
      vertex 24.5 5.9 66.9925
      vertex 24.5 2.12996 63.6763
      vertex 24.5 5.9 63.2
    endloop
  endfacet
  facet normal 1 5.48606e-017 -2.67296e-032
    outer loop
      vertex 24.5 5.9 63.2
      vertex 24.5 2.12996 63.6763
      vertex 24.5 2.11 63.2
    endloop
  endfacet
  facet normal 1 5.48606e-017 -2.67296e-032
    outer loop
      vertex 24.5 5.6614 66.9925
      vertex 24.5 2.12996 63.6763
      vertex 24.5 5.9 66.9925
    endloop
  endfacet
  facet normal 1 5.48606e-017 -2.67296e-032
    outer loop
      vertex 24.5 5.18795 66.9327
      vertex 24.5 2.12996 63.6763
      vertex 24.5 5.6614 66.9925
    endloop
  endfacet
  facet normal 1 5.48606e-017 -2.67296e-032
    outer loop
      vertex 24.5 4.72574 66.814
      vertex 24.5 2.12996 63.6763
      vertex 24.5 5.18795 66.9327
    endloop
  endfacet
  facet normal 1 5.48606e-017 -2.67296e-032
    outer loop
      vertex 24.5 4.28204 66.6383
      vertex 24.5 2.12996 63.6763
      vertex 24.5 4.72574 66.814
    endloop
  endfacet
  facet normal 1 5.48606e-017 -2.67296e-032
    outer loop
      vertex 24.5 3.86386 66.4084
      vertex 24.5 2.12996 63.6763
      vertex 24.5 4.28204 66.6383
    endloop
  endfacet
  facet normal 1 5.48606e-017 -2.67296e-032
    outer loop
      vertex 24.5 3.47779 66.1279
      vertex 24.5 2.12996 63.6763
      vertex 24.5 3.86386 66.4084
    endloop
  endfacet
  facet normal 1 5.48606e-017 -2.67296e-032
    outer loop
      vertex 24.5 3.12992 65.8013
      vertex 24.5 2.12996 63.6763
      vertex 24.5 3.47779 66.1279
    endloop
  endfacet
  facet normal 1 5.48606e-017 -2.67296e-032
    outer loop
      vertex 24.5 2.82574 65.4336
      vertex 24.5 2.12996 63.6763
      vertex 24.5 3.12992 65.8013
    endloop
  endfacet
  facet normal 1 5.48606e-017 -2.67296e-032
    outer loop
      vertex 24.5 2.57004 65.0307
      vertex 24.5 2.12996 63.6763
      vertex 24.5 2.82574 65.4336
    endloop
  endfacet
  facet normal 1 5.48606e-017 -2.67296e-032
    outer loop
      vertex 24.5 2.36685 64.5989
      vertex 24.5 2.12996 63.6763
      vertex 24.5 2.57004 65.0307
    endloop
  endfacet
  facet normal 1 5.48606e-017 -2.67296e-032
    outer loop
      vertex 24.5 2.21938 64.145
      vertex 24.5 2.12996 63.6763
      vertex 24.5 2.36685 64.5989
    endloop
  endfacet
  facet normal -1.22461e-016 -1 1.36718e-016
    outer loop
      vertex 24.5 5.9 66.9925
      vertex 24.5 5.9 67
      vertex -24.5 5.9 67
    endloop
  endfacet
  facet normal -1.22461e-016 -1 1.36718e-016
    outer loop
      vertex 22.5 5.9 66.9925
      vertex 24.5 5.9 66.9925
      vertex -24.5 5.9 67
    endloop
  endfacet
  facet normal -1.22461e-016 -1 1.36718e-016
    outer loop
      vertex -22.5 5.9 66.9925
      vertex 22.5 5.9 66.9925
      vertex -24.5 5.9 67
    endloop
  endfacet
  facet normal -1.22461e-016 -1 1.36718e-016
    outer loop
      vertex -24.5 5.9 66.9925
      vertex -22.5 5.9 66.9925
      vertex -24.5 5.9 67
    endloop
  endfacet
  facet normal -1.22461e-016 -1 1.36718e-016
    outer loop
      vertex -22.5 5.9 2
      vertex 22.5 5.9 2
      vertex 22.5 5.9 63.2
    endloop
  endfacet
  facet normal -1.22461e-016 -1 1.36718e-016
    outer loop
      vertex -22.5 5.9 63.2
      vertex 22.5 5.9 66.9925
      vertex -22.5 5.9 66.9925
    endloop
  endfacet
  facet normal -1.22461e-016 -1 1.36718e-016
    outer loop
      vertex 22.5 5.9 63.2
      vertex -22.5 5.9 63.2
      vertex -22.5 5.9 2
    endloop
  endfacet
  facet normal -1.22461e-016 -1 1.36718e-016
    outer loop
      vertex 22.5 5.9 63.2
      vertex 22.5 5.9 66.9925
      vertex -22.5 5.9 63.2
    endloop
  endfacet
  facet normal 2.71917e-032 2.22045e-016 1
    outer loop
      vertex 22.5 5.6614 66.9925
      vertex 24.5 5.6614 66.9925
      vertex 24.5 5.9 66.9925
    endloop
  endfacet
  facet normal 2.71917e-032 2.22045e-016 1
    outer loop
      vertex 22.5 5.9 66.9925
      vertex 22.5 5.6614 66.9925
      vertex 24.5 5.9 66.9925
    endloop
  endfacet
  facet normal 2.71917e-032 2.22045e-016 1
    outer loop
      vertex 24.5 5.9 67
      vertex 24.5 7.9 67
      vertex -24.5 7.9 67
    endloop
  endfacet
  facet normal 2.71917e-032 2.22045e-016 1
    outer loop
      vertex -24.5 5.9 67
      vertex 24.5 5.9 67
      vertex -24.5 7.9 67
    endloop
  endfacet
  facet normal 1.22461e-016 1 -1.36718e-016
    outer loop
      vertex 24.495 6.4 57
      vertex 24.495 6.4 61
      vertex 24.5 6.4 57
    endloop
  endfacet
  facet normal 1.22461e-016 1 -1.36718e-016
    outer loop
      vertex 24.5 6.4 57
      vertex 24.495 6.4 61
      vertex 24.5 6.4 61
    endloop
  endfacet
  facet normal -2.71917e-032 -2.22045e-016 -1
    outer loop
      vertex 24.495 6.4 61
      vertex 24.495 7.4 61
      vertex 24.5 6.4 61
    endloop
  endfacet
  facet normal -2.71917e-032 -2.22045e-016 -1
    outer loop
      vertex 24.5 6.4 61
      vertex 24.495 7.4 61
      vertex 24.5 7.4 61
    endloop
  endfacet
  facet normal 2.71917e-032 2.22045e-016 1
    outer loop
      vertex 24.495 7.4 57
      vertex 24.495 6.4 57
      vertex 24.5 6.4 57
    endloop
  endfacet
  facet normal 2.71917e-032 2.22045e-016 1
    outer loop
      vertex 24.5 7.4 57
      vertex 24.495 7.4 57
      vertex 24.5 6.4 57
    endloop
  endfacet
  facet normal -1.22461e-016 -1 1.36718e-016
    outer loop
      vertex 24.495 7.4 61
      vertex 24.495 7.4 57
      vertex 24.5 7.4 57
    endloop
  endfacet
  facet normal -1.22461e-016 -1 1.36718e-016
    outer loop
      vertex 24.5 7.4 61
      vertex 24.495 7.4 61
      vertex 24.5 7.4 57
    endloop
  endfacet
  facet normal -2.71917e-032 -2.22045e-016 -1
    outer loop
      vertex 24.495 0.61 43
      vertex 24.495 1.61 43
      vertex 24.5 0.61 43
    endloop
  endfacet
  facet normal -2.71917e-032 -2.22045e-016 -1
    outer loop
      vertex 24.5 0.61 43
      vertex 24.495 1.61 43
      vertex 24.5 1.61 43
    endloop
  endfacet
  facet normal 1.22461e-016 1 -1.36718e-016
    outer loop
      vertex 24.495 0.61 39
      vertex 24.495 0.61 43
      vertex 24.5 0.61 39
    endloop
  endfacet
  facet normal 1.22461e-016 1 -1.36718e-016
    outer loop
      vertex 24.5 0.61 39
      vertex 24.495 0.61 43
      vertex 24.5 0.61 43
    endloop
  endfacet
  facet normal 2.71917e-032 2.22045e-016 1
    outer loop
      vertex 24.495 1.61 39
      vertex 24.495 0.61 39
      vertex 24.5 0.61 39
    endloop
  endfacet
  facet normal 2.71917e-032 2.22045e-016 1
    outer loop
      vertex 24.5 1.61 39
      vertex 24.495 1.61 39
      vertex 24.5 0.61 39
    endloop
  endfacet
  facet normal -1.22461e-016 -1 1.36718e-016
    outer loop
      vertex 24.495 1.61 43
      vertex 24.495 1.61 39
      vertex 24.5 1.61 39
    endloop
  endfacet
  facet normal -1.22461e-016 -1 1.36718e-016
    outer loop
      vertex 24.5 1.61 43
      vertex 24.495 1.61 43
      vertex 24.5 1.61 39
    endloop
  endfacet
  facet normal -2.71917e-032 -2.22045e-016 -1
    outer loop
      vertex 24.495 6.4 10
      vertex 24.495 7.4 10
      vertex 24.5 6.4 10
    endloop
  endfacet
  facet normal -2.71917e-032 -2.22045e-016 -1
    outer loop
      vertex 24.5 6.4 10
      vertex 24.495 7.4 10
      vertex 24.5 7.4 10
    endloop
  endfacet
  facet normal 1.22461e-016 1 -1.36718e-016
    outer loop
      vertex 24.495 6.4 6
      vertex 24.495 6.4 10
      vertex 24.5 6.4 6
    endloop
  endfacet
  facet normal 1.22461e-016 1 -1.36718e-016
    outer loop
      vertex 24.5 6.4 6
      vertex 24.495 6.4 10
      vertex 24.5 6.4 10
    endloop
  endfacet
  facet normal 2.71917e-032 2.22045e-016 1
    outer loop
      vertex 24.495 7.4 6
      vertex 24.495 6.4 6
      vertex 24.5 6.4 6
    endloop
  endfacet
  facet normal 2.71917e-032 2.22045e-016 1
    outer loop
      vertex 24.5 7.4 6
      vertex 24.495 7.4 6
      vertex 24.5 6.4 6
    endloop
  endfacet
  facet normal -1.22461e-016 -1 1.36718e-016
    outer loop
      vertex 24.495 7.4 10
      vertex 24.495 7.4 6
      vertex 24.5 7.4 6
    endloop
  endfacet
  facet normal -1.22461e-016 -1 1.36718e-016
    outer loop
      vertex 24.5 7.4 10
      vertex 24.495 7.4 10
      vertex 24.5 7.4 6
    endloop
  endfacet
  facet normal -2.71917e-032 -2.22045e-016 -1
    outer loop
      vertex 24.495 0.61 10
      vertex 24.495 1.61 10
      vertex 24.5 0.61 10
    endloop
  endfacet
  facet normal -2.71917e-032 -2.22045e-016 -1
    outer loop
      vertex 24.5 0.61 10
      vertex 24.495 1.61 10
      vertex 24.5 1.61 10
    endloop
  endfacet
  facet normal 1.22461e-016 1 -1.36718e-016
    outer loop
      vertex 24.495 0.61 6
      vertex 24.495 0.61 10
      vertex 24.5 0.61 6
    endloop
  endfacet
  facet normal 1.22461e-016 1 -1.36718e-016
    outer loop
      vertex 24.5 0.61 6
      vertex 24.495 0.61 10
      vertex 24.5 0.61 10
    endloop
  endfacet
  facet normal 2.71917e-032 2.22045e-016 1
    outer loop
      vertex 24.495 1.61 6
      vertex 24.495 0.61 6
      vertex 24.5 0.61 6
    endloop
  endfacet
  facet normal 2.71917e-032 2.22045e-016 1
    outer loop
      vertex 24.5 1.61 6
      vertex 24.495 1.61 6
      vertex 24.5 0.61 6
    endloop
  endfacet
  facet normal -1.22461e-016 -1 1.36718e-016
    outer loop
      vertex 24.495 1.61 10
      vertex 24.495 1.61 6
      vertex 24.5 1.61 6
    endloop
  endfacet
  facet normal -1.22461e-016 -1 1.36718e-016
    outer loop
      vertex 24.5 1.61 10
      vertex 24.495 1.61 10
      vertex 24.5 1.61 6
    endloop
  endfacet
  facet normal 0 0 -1
    outer loop
      vertex 24.495 -4.89 1.5
      vertex 24.495 -0.89 1.5
      vertex 24.5 -4.89 1.5
    endloop
  endfacet
  facet normal 0 0 -1
    outer loop
      vertex 24.5 -4.89 1.5
      vertex 24.495 -0.89 1.5
      vertex 24.5 -0.89 1.5
    endloop
  endfacet
  facet normal 1.22461e-016 1 8.53267e-017
    outer loop
      vertex 24.495 -4.89 0.5
      vertex 24.495 -4.89 1.5
      vertex 24.5 -4.89 0.5
    endloop
  endfacet
  facet normal 1.22461e-016 1 8.53267e-017
    outer loop
      vertex 24.5 -4.89 0.5
      vertex 24.495 -4.89 1.5
      vertex 24.5 -4.89 1.5
    endloop
  endfacet
  facet normal 0 0 1
    outer loop
      vertex 24.495 -0.89 0.5
      vertex 24.495 -4.89 0.5
      vertex 24.5 -4.89 0.5
    endloop
  endfacet
  facet normal 0 0 1
    outer loop
      vertex 24.5 -0.89 0.5
      vertex 24.495 -0.89 0.5
      vertex 24.5 -4.89 0.5
    endloop
  endfacet
  facet normal -1.22461e-016 -1 -8.53267e-017
    outer loop
      vertex 24.495 -0.89 1.5
      vertex 24.495 -0.89 0.5
      vertex 24.5 -0.89 0.5
    endloop
  endfacet
  facet normal -1.22461e-016 -1 -8.53267e-017
    outer loop
      vertex 24.5 -0.89 1.5
      vertex 24.495 -0.89 1.5
      vertex 24.5 -0.89 0.5
    endloop
  endfacet
  facet normal -1.22461e-016 -1 1.36718e-016
    outer loop
      vertex -22.5 -7.89 2
      vertex -22.5 -7.89 41
      vertex -24.5 -7.89 41
    endloop
  endfacet
  facet normal -1.22461e-016 -1 1.36718e-016
    outer loop
      vertex -24.5 -7.89 2
      vertex -22.5 -7.89 2
      vertex -24.5 -7.89 41
    endloop
  endfacet
  facet normal 2.71917e-032 2.22045e-016 1
    outer loop
      vertex -22.5 -7.89 41
      vertex -22.5 -7.88 41
      vertex -24.5 -7.88 41
    endloop
  endfacet
  facet normal 2.71917e-032 2.22045e-016 1
    outer loop
      vertex -24.5 -7.89 41
      vertex -22.5 -7.89 41
      vertex -24.5 -7.88 41
    endloop
  endfacet
  facet normal 2.71917e-032 2.22045e-016 1
    outer loop
      vertex -24.5 0.11 41
      vertex -24.5 -7.89 41
      vertex -24.5 -7.88 41
    endloop
  endfacet
  facet normal -1.22461e-016 -1 1.36718e-016
    outer loop
      vertex -22.5 -7.88 41
      vertex -22.5 -7.88 41.1589
      vertex -24.5 -7.88 41.1589
    endloop
  endfacet
  facet normal -1.22461e-016 -1 1.36718e-016
    outer loop
      vertex -24.5 -7.88 41
      vertex -22.5 -7.88 41
      vertex -24.5 -7.88 41.1589
    endloop
  endfacet
  facet normal 9.93875e-017 -0.998027 0.0627901
    outer loop
      vertex -24.5 -7.88 41.1589
      vertex -22.5 -7.88 41.1589
      vertex -22.5 -7.82692 42.0027
    endloop
  endfacet
  facet normal 9.93875e-017 -0.998027 0.0627901
    outer loop
      vertex -24.5 -7.82692 42.0027
      vertex -24.5 -7.88 41.1589
      vertex -22.5 -7.82692 42.0027
    endloop
  endfacet
  facet normal 9.78201e-017 -0.982287 0.187382
    outer loop
      vertex -24.5 -7.82692 42.0027
      vertex -22.5 -7.82692 42.0027
      vertex -22.5 -7.63866 42.9895
    endloop
  endfacet
  facet normal 9.78201e-017 -0.982287 0.187382
    outer loop
      vertex -24.5 -7.63866 42.9895
      vertex -24.5 -7.82692 42.0027
      vertex -22.5 -7.63866 42.9895
    endloop
  endfacet
  facet normal 9.471e-017 -0.951057 0.309017
    outer loop
      vertex -24.5 -7.63866 42.9895
      vertex -22.5 -7.63866 42.9895
      vertex -22.5 -7.32821 43.945
    endloop
  endfacet
  facet normal 9.471e-017 -0.951057 0.309017
    outer loop
      vertex -24.5 -7.32821 43.945
      vertex -24.5 -7.63866 42.9895
      vertex -22.5 -7.32821 43.945
    endloop
  endfacet
  facet normal 9.01062e-017 -0.904827 0.42578
    outer loop
      vertex -24.5 -7.32821 43.945
      vertex -22.5 -7.32821 43.945
      vertex -22.5 -6.90045 44.854
    endloop
  endfacet
  facet normal 9.01062e-017 -0.904827 0.42578
    outer loop
      vertex -24.5 -6.90045 44.854
      vertex -24.5 -7.32821 43.945
      vertex -22.5 -6.90045 44.854
    endloop
  endfacet
  facet normal 8.40816e-017 -0.844328 0.535826
    outer loop
      vertex -24.5 -6.90045 44.854
      vertex -22.5 -6.90045 44.854
      vertex -22.5 -6.36214 45.7023
    endloop
  endfacet
  facet normal 8.40816e-017 -0.844328 0.535826
    outer loop
      vertex -24.5 -6.36214 45.7023
      vertex -24.5 -6.90045 44.854
      vertex -22.5 -6.36214 45.7023
    endloop
  endfacet
  facet normal 7.67308e-017 -0.770513 0.637424
    outer loop
      vertex -24.5 -6.36214 45.7023
      vertex -22.5 -6.36214 45.7023
      vertex -22.5 -5.72175 46.4764
    endloop
  endfacet
  facet normal 7.67308e-017 -0.770513 0.637424
    outer loop
      vertex -24.5 -5.72175 46.4764
      vertex -24.5 -6.36214 45.7023
      vertex -22.5 -5.72175 46.4764
    endloop
  endfacet
  facet normal 6.81699e-017 -0.684547 0.728969
    outer loop
      vertex -24.5 -5.72175 46.4764
      vertex -22.5 -5.72175 46.4764
      vertex -22.5 -4.98939 47.1641
    endloop
  endfacet
  facet normal 6.81699e-017 -0.684547 0.728969
    outer loop
      vertex -24.5 -4.98939 47.1641
      vertex -24.5 -5.72175 46.4764
      vertex -22.5 -4.98939 47.1641
    endloop
  endfacet
  facet normal 5.85339e-017 -0.587785 0.809017
    outer loop
      vertex -24.5 -4.98939 47.1641
      vertex -22.5 -4.98939 47.1641
      vertex -22.5 -4.17661 47.7546
    endloop
  endfacet
  facet normal 5.85339e-017 -0.587785 0.809017
    outer loop
      vertex -24.5 -4.17661 47.7546
      vertex -24.5 -4.98939 47.1641
      vertex -22.5 -4.17661 47.7546
    endloop
  endfacet
  facet normal 4.79749e-017 -0.481754 0.876307
    outer loop
      vertex -24.5 -4.17661 47.7546
      vertex -22.5 -4.17661 47.7546
      vertex -22.5 -3.29623 48.2386
    endloop
  endfacet
  facet normal 4.79749e-017 -0.481754 0.876307
    outer loop
      vertex -24.5 -3.29623 48.2386
      vertex -24.5 -4.17661 47.7546
      vertex -22.5 -3.29623 48.2386
    endloop
  endfacet
  facet normal 3.66593e-017 -0.368125 0.929776
    outer loop
      vertex -24.5 -3.29623 48.2386
      vertex -22.5 -3.29623 48.2386
      vertex -22.5 -2.36214 48.6085
    endloop
  endfacet
  facet normal 3.66593e-017 -0.368125 0.929776
    outer loop
      vertex -24.5 -2.36214 48.6085
      vertex -24.5 -3.29623 48.2386
      vertex -22.5 -2.36214 48.6085
    endloop
  endfacet
  facet normal 2.47655e-017 -0.24869 0.968583
    outer loop
      vertex -24.5 -2.36214 48.6085
      vertex -22.5 -2.36214 48.6085
      vertex -22.5 -1.38905 48.8583
    endloop
  endfacet
  facet normal 2.47655e-017 -0.24869 0.968583
    outer loop
      vertex -24.5 -1.38905 48.8583
      vertex -24.5 -2.36214 48.6085
      vertex -22.5 -1.38905 48.8583
    endloop
  endfacet
  facet normal 1.24812e-017 -0.125333 0.992115
    outer loop
      vertex -24.5 -1.38905 48.8583
      vertex -22.5 -1.38905 48.8583
      vertex -22.5 -0.392324 48.9842
    endloop
  endfacet
  facet normal 1.24812e-017 -0.125333 0.992115
    outer loop
      vertex -24.5 -0.392324 48.9842
      vertex -24.5 -1.38905 48.8583
      vertex -22.5 -0.392324 48.9842
    endloop
  endfacet
  facet normal -1 -5.48606e-017 2.67296e-032
    outer loop
      vertex -24.5 -7.88 41.1589
      vertex -24.5 -7.82692 42.0027
      vertex -24.5 -7.88 41
    endloop
  endfacet
  facet normal -1 -5.48606e-017 2.67296e-032
    outer loop
      vertex -24.5 -7.88 41
      vertex -24.5 -7.82692 42.0027
      vertex -24.5 -7.63866 42.9895
    endloop
  endfacet
  facet normal -1 -5.48606e-017 2.67296e-032
    outer loop
      vertex -24.5 -7.88 41
      vertex -24.5 -7.63866 42.9895
      vertex -24.5 -7.32821 43.945
    endloop
  endfacet
  facet normal -1 -5.48606e-017 2.67296e-032
    outer loop
      vertex -24.5 -7.88 41
      vertex -24.5 -7.32821 43.945
      vertex -24.5 -6.90045 44.854
    endloop
  endfacet
  facet normal -1 -5.48606e-017 2.67296e-032
    outer loop
      vertex -24.5 -7.88 41
      vertex -24.5 -6.90045 44.854
      vertex -24.5 -6.36214 45.7023
    endloop
  endfacet
  facet normal -1 -5.48606e-017 2.67296e-032
    outer loop
      vertex -24.5 -7.88 41
      vertex -24.5 -6.36214 45.7023
      vertex -24.5 -5.72175 46.4764
    endloop
  endfacet
  facet normal -1 -5.48606e-017 2.67296e-032
    outer loop
      vertex -24.5 -7.88 41
      vertex -24.5 -5.72175 46.4764
      vertex -24.5 -4.98939 47.1641
    endloop
  endfacet
  facet normal -1 -5.48606e-017 2.67296e-032
    outer loop
      vertex -24.5 -7.88 41
      vertex -24.5 -4.98939 47.1641
      vertex -24.5 -4.17661 47.7546
    endloop
  endfacet
  facet normal -1 -5.48606e-017 2.67296e-032
    outer loop
      vertex -24.5 -7.88 41
      vertex -24.5 -4.17661 47.7546
      vertex -24.5 -3.29623 48.2386
    endloop
  endfacet
  facet normal -1 -5.48606e-017 2.67296e-032
    outer loop
      vertex -24.5 -7.88 41
      vertex -24.5 -3.29623 48.2386
      vertex -24.5 -2.36214 48.6085
    endloop
  endfacet
  facet normal -1 -5.48606e-017 2.67296e-032
    outer loop
      vertex -24.5 -7.88 41
      vertex -24.5 -2.36214 48.6085
      vertex -24.5 -1.38905 48.8583
    endloop
  endfacet
  facet normal -1 -5.48606e-017 2.67296e-032
    outer loop
      vertex -24.5 -7.88 41
      vertex -24.5 -1.38905 48.8583
      vertex -24.5 -0.392324 48.9842
    endloop
  endfacet
  facet normal -1 -5.48606e-017 2.67296e-032
    outer loop
      vertex -24.5 -7.88 41
      vertex -24.5 -0.392324 48.9842
      vertex -24.5 0.12 48.9842
    endloop
  endfacet
  facet normal -1 -5.48606e-017 2.67296e-032
    outer loop
      vertex -24.5 0.11 41
      vertex -24.5 0.12 48.9842
      vertex -24.5 0.12 41
    endloop
  endfacet
  facet normal -1 -5.48606e-017 2.67296e-032
    outer loop
      vertex -24.5 -7.88 41
      vertex -24.5 0.12 48.9842
      vertex -24.5 0.11 41
    endloop
  endfacet
  facet normal 2.71917e-032 2.22045e-016 1
    outer loop
      vertex -24.5 5.6614 66.9925
      vertex -22.5 5.6614 66.9925
      vertex -22.5 5.9 66.9925
    endloop
  endfacet
  facet normal 2.71917e-032 2.22045e-016 1
    outer loop
      vertex -24.5 5.91 66.9925
      vertex -24.5 5.6614 66.9925
      vertex -24.5 5.9 66.9925
    endloop
  endfacet
  facet normal 2.71917e-032 2.22045e-016 1
    outer loop
      vertex -24.5 5.9 66.9925
      vertex -24.5 5.6614 66.9925
      vertex -22.5 5.9 66.9925
    endloop
  endfacet
  facet normal -1 -5.48606e-017 2.67296e-032
    outer loop
      vertex -24.5 2.11 63.3589
      vertex -24.5 2.12996 63.6763
      vertex -24.5 2.11 63.2
    endloop
  endfacet
  facet normal -1 -5.48606e-017 2.67296e-032
    outer loop
      vertex -24.5 2.11 63.2
      vertex -24.5 2.12996 63.6763
      vertex -24.5 2.21938 64.145
    endloop
  endfacet
  facet normal -1 -5.48606e-017 2.67296e-032
    outer loop
      vertex -24.5 2.11 63.2
      vertex -24.5 2.21938 64.145
      vertex -24.5 2.36685 64.5989
    endloop
  endfacet
  facet normal -1 -5.48606e-017 2.67296e-032
    outer loop
      vertex -24.5 2.11 63.2
      vertex -24.5 2.36685 64.5989
      vertex -24.5 2.57004 65.0307
    endloop
  endfacet
  facet normal -1 -5.48606e-017 2.67296e-032
    outer loop
      vertex -24.5 2.11 63.2
      vertex -24.5 2.57004 65.0307
      vertex -24.5 2.82574 65.4336
    endloop
  endfacet
  facet normal -1 -5.48606e-017 2.67296e-032
    outer loop
      vertex -24.5 2.11 63.2
      vertex -24.5 2.82574 65.4336
      vertex -24.5 3.12992 65.8013
    endloop
  endfacet
  facet normal -1 -5.48606e-017 2.67296e-032
    outer loop
      vertex -24.5 2.11 63.2
      vertex -24.5 3.12992 65.8013
      vertex -24.5 3.47779 66.1279
    endloop
  endfacet
  facet normal -1 -5.48606e-017 2.67296e-032
    outer loop
      vertex -24.5 2.11 63.2
      vertex -24.5 3.47779 66.1279
      vertex -24.5 3.86386 66.4084
    endloop
  endfacet
  facet normal -1 -5.48606e-017 2.67296e-032
    outer loop
      vertex -24.5 2.11 63.2
      vertex -24.5 3.86386 66.4084
      vertex -24.5 4.28204 66.6383
    endloop
  endfacet
  facet normal -1 -5.48606e-017 2.67296e-032
    outer loop
      vertex -24.5 2.11 63.2
      vertex -24.5 4.28204 66.6383
      vertex -24.5 4.72574 66.814
    endloop
  endfacet
  facet normal -1 -5.48606e-017 2.67296e-032
    outer loop
      vertex -24.5 2.11 63.2
      vertex -24.5 4.72574 66.814
      vertex -24.5 5.18795 66.9327
    endloop
  endfacet
  facet normal -1 -5.48606e-017 2.67296e-032
    outer loop
      vertex -24.5 2.11 63.2
      vertex -24.5 5.18795 66.9327
      vertex -24.5 5.6614 66.9925
    endloop
  endfacet
  facet normal -1 -5.48606e-017 2.67296e-032
    outer loop
      vertex -24.5 2.11 63.2
      vertex -24.5 5.6614 66.9925
      vertex -24.5 5.91 66.9925
    endloop
  endfacet
  facet normal -1 -5.48606e-017 2.67296e-032
    outer loop
      vertex -24.5 5.9 63.2
      vertex -24.5 5.91 66.9925
      vertex -24.5 5.91 63.2
    endloop
  endfacet
  facet normal -1 -5.48606e-017 2.67296e-032
    outer loop
      vertex -24.5 2.11 63.2
      vertex -24.5 5.91 66.9925
      vertex -24.5 5.9 63.2
    endloop
  endfacet
  facet normal 2.71917e-032 2.22045e-016 1
    outer loop
      vertex -22.5 2.1 63.2
      vertex -22.5 2.11 63.2
      vertex -24.5 2.11 63.2
    endloop
  endfacet
  facet normal 2.71917e-032 2.22045e-016 1
    outer loop
      vertex -24.5 2.1 63.2
      vertex -22.5 2.1 63.2
      vertex -24.5 2.11 63.2
    endloop
  endfacet
  facet normal 2.71917e-032 2.22045e-016 1
    outer loop
      vertex -24.5 5.9 63.2
      vertex -24.5 2.1 63.2
      vertex -24.5 2.11 63.2
    endloop
  endfacet
  facet normal -1.22461e-016 -1 1.36718e-016
    outer loop
      vertex -22.5 2.1 49
      vertex -22.5 2.1 63.2
      vertex -24.5 2.1 63.2
    endloop
  endfacet
  facet normal -1.22461e-016 -1 1.36718e-016
    outer loop
      vertex -24.5 2.1 49
      vertex -22.5 2.1 49
      vertex -24.5 2.1 63.2
    endloop
  endfacet
  facet normal 1 -1.22461e-016 -2.48665e-033
    outer loop
      vertex -22.5 5.9 2
      vertex -22.5 5.9 63.2
      vertex -22.5 2.11 63.2
    endloop
  endfacet
  facet normal 1 -1.22461e-016 -2.48665e-033
    outer loop
      vertex -22.5 2.11 49
      vertex -22.5 5.9 2
      vertex -22.5 2.1 63.2
    endloop
  endfacet
  facet normal 1 -1.22461e-016 -2.48665e-033
    outer loop
      vertex -22.5 2.1 63.2
      vertex -22.5 5.9 2
      vertex -22.5 2.11 63.2
    endloop
  endfacet
  facet normal 1 -1.22461e-016 -2.48665e-033
    outer loop
      vertex -22.5 2.1 49
      vertex -22.5 2.11 49
      vertex -22.5 2.1 63.2
    endloop
  endfacet
  facet normal 1 -1.22461e-016 -2.48665e-033
    outer loop
      vertex -22.5 2.11 49
      vertex -22.5 2.11 2
      vertex -22.5 5.9 2
    endloop
  endfacet
  facet normal 1.22461e-016 1 -1.36718e-016
    outer loop
      vertex 22.5 2.11 49
      vertex 22.5 2.11 2
      vertex -22.5 2.11 49
    endloop
  endfacet
  facet normal 1.22461e-016 1 -1.36718e-016
    outer loop
      vertex -22.5 2.11 49
      vertex 22.5 2.11 2
      vertex -22.5 2.11 2
    endloop
  endfacet
  facet normal -1 1.22461e-016 2.48665e-033
    outer loop
      vertex 22.5 5.9 63.2
      vertex 22.5 5.9 2
      vertex 22.5 2.11 2
    endloop
  endfacet
  facet normal -1 1.22461e-016 2.48665e-033
    outer loop
      vertex 22.5 5.9 63.2
      vertex 22.5 2.11 2
      vertex 22.5 2.11 49
    endloop
  endfacet
  facet normal -1 1.22461e-016 2.48665e-033
    outer loop
      vertex 22.5 5.9 63.2
      vertex 22.5 2.11 49
      vertex 22.5 2.1 49
    endloop
  endfacet
  facet normal -1 1.22461e-016 2.48665e-033
    outer loop
      vertex 22.5 5.9 63.2
      vertex 22.5 2.1 49
      vertex 22.5 2.1 63.2
    endloop
  endfacet
  facet normal -1 -5.48606e-017 2.67296e-032
    outer loop
      vertex 22.5 2.11 63.3589
      vertex 22.5 2.12996 63.6763
      vertex 22.5 2.11 63.2
    endloop
  endfacet
  facet normal -1 -5.48606e-017 2.67296e-032
    outer loop
      vertex 22.5 2.11 63.2
      vertex 22.5 2.12996 63.6763
      vertex 22.5 2.21938 64.145
    endloop
  endfacet
  facet normal -1 -5.48606e-017 2.67296e-032
    outer loop
      vertex 22.5 2.11 63.2
      vertex 22.5 2.21938 64.145
      vertex 22.5 2.36685 64.5989
    endloop
  endfacet
  facet normal -1 -5.48606e-017 2.67296e-032
    outer loop
      vertex 22.5 2.11 63.2
      vertex 22.5 2.36685 64.5989
      vertex 22.5 2.57004 65.0307
    endloop
  endfacet
  facet normal -1 -5.48606e-017 2.67296e-032
    outer loop
      vertex 22.5 2.11 63.2
      vertex 22.5 2.57004 65.0307
      vertex 22.5 2.82574 65.4336
    endloop
  endfacet
  facet normal -1 -5.48606e-017 2.67296e-032
    outer loop
      vertex 22.5 2.11 63.2
      vertex 22.5 2.82574 65.4336
      vertex 22.5 3.12992 65.8013
    endloop
  endfacet
  facet normal -1 -5.48606e-017 2.67296e-032
    outer loop
      vertex 22.5 2.11 63.2
      vertex 22.5 3.12992 65.8013
      vertex 22.5 3.47779 66.1279
    endloop
  endfacet
  facet normal -1 -5.48606e-017 2.67296e-032
    outer loop
      vertex 22.5 2.11 63.2
      vertex 22.5 3.47779 66.1279
      vertex 22.5 3.86386 66.4084
    endloop
  endfacet
  facet normal -1 -5.48606e-017 2.67296e-032
    outer loop
      vertex 22.5 2.11 63.2
      vertex 22.5 3.86386 66.4084
      vertex 22.5 4.28204 66.6383
    endloop
  endfacet
  facet normal -1 -5.48606e-017 2.67296e-032
    outer loop
      vertex 22.5 2.11 63.2
      vertex 22.5 4.28204 66.6383
      vertex 22.5 4.72574 66.814
    endloop
  endfacet
  facet normal -1 -5.48606e-017 2.67296e-032
    outer loop
      vertex 22.5 2.11 63.2
      vertex 22.5 4.72574 66.814
      vertex 22.5 5.18795 66.9327
    endloop
  endfacet
  facet normal -1 -5.48606e-017 2.67296e-032
    outer loop
      vertex 22.5 2.11 63.2
      vertex 22.5 5.18795 66.9327
      vertex 22.5 5.6614 66.9925
    endloop
  endfacet
  facet normal -1 -5.48606e-017 2.67296e-032
    outer loop
      vertex 22.5 2.11 63.2
      vertex 22.5 5.6614 66.9925
      vertex 22.5 5.9 66.9925
    endloop
  endfacet
  facet normal -1 -5.48606e-017 2.67296e-032
    outer loop
      vertex 22.5 2.11 63.2
      vertex 22.5 5.9 66.9925
      vertex 22.5 5.9 63.2
    endloop
  endfacet
  facet normal 9.93875e-017 -0.998027 0.0627903
    outer loop
      vertex 22.5 2.11 63.3589
      vertex 24.5 2.11 63.3589
      vertex 24.5 2.12996 63.6763
    endloop
  endfacet
  facet normal 9.93875e-017 -0.998027 0.0627903
    outer loop
      vertex 22.5 2.12996 63.6763
      vertex 22.5 2.11 63.3589
      vertex 24.5 2.12996 63.6763
    endloop
  endfacet
  facet normal 9.78201e-017 -0.982287 0.187381
    outer loop
      vertex 22.5 2.12996 63.6763
      vertex 24.5 2.12996 63.6763
      vertex 24.5 2.21938 64.145
    endloop
  endfacet
  facet normal 9.78201e-017 -0.982287 0.187381
    outer loop
      vertex 22.5 2.21938 64.145
      vertex 22.5 2.12996 63.6763
      vertex 24.5 2.21938 64.145
    endloop
  endfacet
  facet normal 9.471e-017 -0.951057 0.309017
    outer loop
      vertex 22.5 2.21938 64.145
      vertex 24.5 2.21938 64.145
      vertex 24.5 2.36685 64.5989
    endloop
  endfacet
  facet normal 9.471e-017 -0.951057 0.309017
    outer loop
      vertex 22.5 2.36685 64.5989
      vertex 22.5 2.21938 64.145
      vertex 24.5 2.36685 64.5989
    endloop
  endfacet
  facet normal 9.01062e-017 -0.904827 0.42578
    outer loop
      vertex 22.5 2.36685 64.5989
      vertex 24.5 2.36685 64.5989
      vertex 24.5 2.57004 65.0307
    endloop
  endfacet
  facet normal 9.01062e-017 -0.904827 0.42578
    outer loop
      vertex 22.5 2.57004 65.0307
      vertex 22.5 2.36685 64.5989
      vertex 24.5 2.57004 65.0307
    endloop
  endfacet
  facet normal 8.40816e-017 -0.844329 0.535826
    outer loop
      vertex 22.5 2.57004 65.0307
      vertex 24.5 2.57004 65.0307
      vertex 24.5 2.82574 65.4336
    endloop
  endfacet
  facet normal 8.40816e-017 -0.844329 0.535826
    outer loop
      vertex 22.5 2.82574 65.4336
      vertex 22.5 2.57004 65.0307
      vertex 24.5 2.82574 65.4336
    endloop
  endfacet
  facet normal 7.67307e-017 -0.770513 0.637424
    outer loop
      vertex 22.5 2.82574 65.4336
      vertex 24.5 2.82574 65.4336
      vertex 24.5 3.12992 65.8013
    endloop
  endfacet
  facet normal 7.67307e-017 -0.770513 0.637424
    outer loop
      vertex 22.5 3.12992 65.8013
      vertex 22.5 2.82574 65.4336
      vertex 24.5 3.12992 65.8013
    endloop
  endfacet
  facet normal 6.81698e-017 -0.684546 0.728969
    outer loop
      vertex 22.5 3.12992 65.8013
      vertex 24.5 3.12992 65.8013
      vertex 24.5 3.47779 66.1279
    endloop
  endfacet
  facet normal 6.81698e-017 -0.684546 0.728969
    outer loop
      vertex 22.5 3.47779 66.1279
      vertex 22.5 3.12992 65.8013
      vertex 24.5 3.47779 66.1279
    endloop
  endfacet
  facet normal 5.85341e-017 -0.587786 0.809017
    outer loop
      vertex 22.5 3.47779 66.1279
      vertex 24.5 3.47779 66.1279
      vertex 24.5 3.86386 66.4084
    endloop
  endfacet
  facet normal 5.85341e-017 -0.587786 0.809017
    outer loop
      vertex 22.5 3.86386 66.4084
      vertex 22.5 3.47779 66.1279
      vertex 24.5 3.86386 66.4084
    endloop
  endfacet
  facet normal 4.7975e-017 -0.481754 0.876307
    outer loop
      vertex 22.5 3.86386 66.4084
      vertex 24.5 3.86386 66.4084
      vertex 24.5 4.28204 66.6383
    endloop
  endfacet
  facet normal 4.7975e-017 -0.481754 0.876307
    outer loop
      vertex 22.5 4.28204 66.6383
      vertex 22.5 3.86386 66.4084
      vertex 24.5 4.28204 66.6383
    endloop
  endfacet
  facet normal 3.66594e-017 -0.368125 0.929776
    outer loop
      vertex 22.5 4.28204 66.6383
      vertex 24.5 4.28204 66.6383
      vertex 24.5 4.72574 66.814
    endloop
  endfacet
  facet normal 3.66594e-017 -0.368125 0.929776
    outer loop
      vertex 22.5 4.72574 66.814
      vertex 22.5 4.28204 66.6383
      vertex 24.5 4.72574 66.814
    endloop
  endfacet
  facet normal 2.47655e-017 -0.24869 0.968583
    outer loop
      vertex 22.5 4.72574 66.814
      vertex 24.5 4.72574 66.814
      vertex 24.5 5.18795 66.9327
    endloop
  endfacet
  facet normal 2.47655e-017 -0.24869 0.968583
    outer loop
      vertex 22.5 5.18795 66.9327
      vertex 22.5 4.72574 66.814
      vertex 24.5 5.18795 66.9327
    endloop
  endfacet
  facet normal 1.24812e-017 -0.125333 0.992115
    outer loop
      vertex 22.5 5.18795 66.9327
      vertex 24.5 5.18795 66.9327
      vertex 24.5 5.6614 66.9925
    endloop
  endfacet
  facet normal 1.24812e-017 -0.125333 0.992115
    outer loop
      vertex 22.5 5.6614 66.9925
      vertex 22.5 5.18795 66.9327
      vertex 24.5 5.6614 66.9925
    endloop
  endfacet
  facet normal 2.71917e-032 2.22045e-016 1
    outer loop
      vertex 22.5 2.11 2
      vertex 22.5 5.9 2
      vertex -22.5 5.9 2
    endloop
  endfacet
  facet normal 2.71917e-032 2.22045e-016 1
    outer loop
      vertex -22.5 2.11 2
      vertex 22.5 2.11 2
      vertex -22.5 5.9 2
    endloop
  endfacet
  facet normal 1 5.48606e-017 -2.67296e-032
    outer loop
      vertex -22.5 2.12996 63.6763
      vertex -22.5 2.11 63.3589
      vertex -22.5 2.11 63.2
    endloop
  endfacet
  facet normal 1 5.48606e-017 -2.67296e-032
    outer loop
      vertex -22.5 5.9 66.9925
      vertex -22.5 2.12996 63.6763
      vertex -22.5 5.9 63.2
    endloop
  endfacet
  facet normal 1 5.48606e-017 -2.67296e-032
    outer loop
      vertex -22.5 5.9 63.2
      vertex -22.5 2.12996 63.6763
      vertex -22.5 2.11 63.2
    endloop
  endfacet
  facet normal 1 5.48606e-017 -2.67296e-032
    outer loop
      vertex -22.5 5.6614 66.9925
      vertex -22.5 2.12996 63.6763
      vertex -22.5 5.9 66.9925
    endloop
  endfacet
  facet normal 1 5.48606e-017 -2.67296e-032
    outer loop
      vertex -22.5 5.18795 66.9327
      vertex -22.5 2.12996 63.6763
      vertex -22.5 5.6614 66.9925
    endloop
  endfacet
  facet normal 1 5.48606e-017 -2.67296e-032
    outer loop
      vertex -22.5 4.72574 66.814
      vertex -22.5 2.12996 63.6763
      vertex -22.5 5.18795 66.9327
    endloop
  endfacet
  facet normal 1 5.48606e-017 -2.67296e-032
    outer loop
      vertex -22.5 4.28204 66.6383
      vertex -22.5 2.12996 63.6763
      vertex -22.5 4.72574 66.814
    endloop
  endfacet
  facet normal 1 5.48606e-017 -2.67296e-032
    outer loop
      vertex -22.5 3.86386 66.4084
      vertex -22.5 2.12996 63.6763
      vertex -22.5 4.28204 66.6383
    endloop
  endfacet
  facet normal 1 5.48606e-017 -2.67296e-032
    outer loop
      vertex -22.5 3.47779 66.1279
      vertex -22.5 2.12996 63.6763
      vertex -22.5 3.86386 66.4084
    endloop
  endfacet
  facet normal 1 5.48606e-017 -2.67296e-032
    outer loop
      vertex -22.5 3.12992 65.8013
      vertex -22.5 2.12996 63.6763
      vertex -22.5 3.47779 66.1279
    endloop
  endfacet
  facet normal 1 5.48606e-017 -2.67296e-032
    outer loop
      vertex -22.5 2.82574 65.4336
      vertex -22.5 2.12996 63.6763
      vertex -22.5 3.12992 65.8013
    endloop
  endfacet
  facet normal 1 5.48606e-017 -2.67296e-032
    outer loop
      vertex -22.5 2.57004 65.0307
      vertex -22.5 2.12996 63.6763
      vertex -22.5 2.82574 65.4336
    endloop
  endfacet
  facet normal 1 5.48606e-017 -2.67296e-032
    outer loop
      vertex -22.5 2.36685 64.5989
      vertex -22.5 2.12996 63.6763
      vertex -22.5 2.57004 65.0307
    endloop
  endfacet
  facet normal 1 5.48606e-017 -2.67296e-032
    outer loop
      vertex -22.5 2.21938 64.145
      vertex -22.5 2.12996 63.6763
      vertex -22.5 2.36685 64.5989
    endloop
  endfacet
  facet normal 0.0995284 -2.3313e-016 -0.995035
    outer loop
      vertex 22.4955 6.45 60.8
      vertex 22.4955 7.35 60.8
      vertex 24.495 6.4 61
    endloop
  endfacet
  facet normal 0.0995284 -2.3313e-016 -0.995035
    outer loop
      vertex 24.495 6.4 61
      vertex 22.4955 7.35 60.8
      vertex 24.495 7.4 61
    endloop
  endfacet
  facet normal 0.0249984 0.999687 -1.36675e-016
    outer loop
      vertex 22.4955 6.45 57.2
      vertex 22.4955 6.45 60.8
      vertex 24.495 6.4 57
    endloop
  endfacet
  facet normal 0.0249984 0.999687 -1.36675e-016
    outer loop
      vertex 24.495 6.4 57
      vertex 22.4955 6.45 60.8
      vertex 24.495 6.4 61
    endloop
  endfacet
  facet normal 0.0995284 2.08754e-016 0.995035
    outer loop
      vertex 22.4955 7.35 57.2
      vertex 22.4955 6.45 57.2
      vertex 24.495 6.4 57
    endloop
  endfacet
  facet normal 0.0995284 2.08754e-016 0.995035
    outer loop
      vertex 24.495 7.4 57
      vertex 22.4955 7.35 57.2
      vertex 24.495 6.4 57
    endloop
  endfacet
  facet normal 0.0249984 -0.999687 1.36675e-016
    outer loop
      vertex 22.4955 7.35 60.8
      vertex 22.4955 7.35 57.2
      vertex 24.495 7.4 57
    endloop
  endfacet
  facet normal 0.0249984 -0.999687 1.36675e-016
    outer loop
      vertex 24.495 7.4 61
      vertex 22.4955 7.35 60.8
      vertex 24.495 7.4 57
    endloop
  endfacet
  facet normal 0.0249984 -0.999687 1.36675e-016
    outer loop
      vertex 22.4955 1.56 42.8
      vertex 22.4955 1.56 39.2
      vertex 24.495 1.61 39
    endloop
  endfacet
  facet normal 0.0249984 -0.999687 1.36675e-016
    outer loop
      vertex 24.495 1.61 43
      vertex 22.4955 1.56 42.8
      vertex 24.495 1.61 39
    endloop
  endfacet
  facet normal 0.0995284 -2.3313e-016 -0.995035
    outer loop
      vertex 22.4955 0.66 42.8
      vertex 22.4955 1.56 42.8
      vertex 24.495 0.61 43
    endloop
  endfacet
  facet normal 0.0995284 -2.3313e-016 -0.995035
    outer loop
      vertex 24.495 0.61 43
      vertex 22.4955 1.56 42.8
      vertex 24.495 1.61 43
    endloop
  endfacet
  facet normal 0.0249984 0.999687 -1.36675e-016
    outer loop
      vertex 22.4955 0.66 39.2
      vertex 22.4955 0.66 42.8
      vertex 24.495 0.61 39
    endloop
  endfacet
  facet normal 0.0249984 0.999687 -1.36675e-016
    outer loop
      vertex 24.495 0.61 39
      vertex 22.4955 0.66 42.8
      vertex 24.495 0.61 43
    endloop
  endfacet
  facet normal 0.0995284 2.08754e-016 0.995035
    outer loop
      vertex 22.4955 1.56 39.2
      vertex 22.4955 0.66 39.2
      vertex 24.495 0.61 39
    endloop
  endfacet
  facet normal 0.0995284 2.08754e-016 0.995035
    outer loop
      vertex 24.495 1.61 39
      vertex 22.4955 1.56 39.2
      vertex 24.495 0.61 39
    endloop
  endfacet
  facet normal 0.0249984 -0.999687 1.36675e-016
    outer loop
      vertex 22.4955 7.35 9.8
      vertex 22.4955 7.35 6.2
      vertex 24.495 7.4 6
    endloop
  endfacet
  facet normal 0.0249984 -0.999687 1.36675e-016
    outer loop
      vertex 24.495 7.4 10
      vertex 22.4955 7.35 9.8
      vertex 24.495 7.4 6
    endloop
  endfacet
  facet normal 0.0995284 -2.3313e-016 -0.995035
    outer loop
      vertex 22.4955 6.45 9.8
      vertex 22.4955 7.35 9.8
      vertex 24.495 6.4 10
    endloop
  endfacet
  facet normal 0.0995284 -2.3313e-016 -0.995035
    outer loop
      vertex 24.495 6.4 10
      vertex 22.4955 7.35 9.8
      vertex 24.495 7.4 10
    endloop
  endfacet
  facet normal 0.0249984 0.999687 -1.36675e-016
    outer loop
      vertex 22.4955 6.45 6.2
      vertex 22.4955 6.45 9.8
      vertex 24.495 6.4 6
    endloop
  endfacet
  facet normal 0.0249984 0.999687 -1.36675e-016
    outer loop
      vertex 24.495 6.4 6
      vertex 22.4955 6.45 9.8
      vertex 24.495 6.4 10
    endloop
  endfacet
  facet normal 0.0995284 2.08754e-016 0.995035
    outer loop
      vertex 22.4955 7.35 6.2
      vertex 22.4955 6.45 6.2
      vertex 24.495 6.4 6
    endloop
  endfacet
  facet normal 0.0995284 2.08754e-016 0.995035
    outer loop
      vertex 24.495 7.4 6
      vertex 22.4955 7.35 6.2
      vertex 24.495 6.4 6
    endloop
  endfacet
  facet normal 0.0249984 -0.999687 1.36675e-016
    outer loop
      vertex 22.4955 1.56 9.8
      vertex 22.4955 1.56 6.2
      vertex 24.495 1.61 6
    endloop
  endfacet
  facet normal 0.0249984 -0.999687 1.36675e-016
    outer loop
      vertex 24.495 1.61 10
      vertex 22.4955 1.56 9.8
      vertex 24.495 1.61 6
    endloop
  endfacet
  facet normal 0.0995284 -2.3313e-016 -0.995035
    outer loop
      vertex 22.4955 0.66 9.8
      vertex 22.4955 1.56 9.8
      vertex 24.495 0.61 10
    endloop
  endfacet
  facet normal 0.0995284 -2.3313e-016 -0.995035
    outer loop
      vertex 24.495 0.61 10
      vertex 22.4955 1.56 9.8
      vertex 24.495 1.61 10
    endloop
  endfacet
  facet normal 0.0249984 0.999687 -1.36675e-016
    outer loop
      vertex 22.4955 0.66 6.2
      vertex 22.4955 0.66 9.8
      vertex 24.495 0.61 6
    endloop
  endfacet
  facet normal 0.0249984 0.999687 -1.36675e-016
    outer loop
      vertex 24.495 0.61 6
      vertex 22.4955 0.66 9.8
      vertex 24.495 0.61 10
    endloop
  endfacet
  facet normal 0.0995284 2.08754e-016 0.995035
    outer loop
      vertex 22.4955 1.56 6.2
      vertex 22.4955 0.66 6.2
      vertex 24.495 0.61 6
    endloop
  endfacet
  facet normal 0.0995284 2.08754e-016 0.995035
    outer loop
      vertex 24.495 1.61 6
      vertex 22.4955 1.56 6.2
      vertex 24.495 0.61 6
    endloop
  endfacet
  facet normal 0.0995284 -0.995035 -8.4903e-017
    outer loop
      vertex 22.4955 -1.09 1.45
      vertex 22.4955 -1.09 0.55
      vertex 24.495 -0.89 0.5
    endloop
  endfacet
  facet normal 0.0995284 -0.995035 -8.4903e-017
    outer loop
      vertex 24.495 -0.89 1.5
      vertex 22.4955 -1.09 1.45
      vertex 24.495 -0.89 0.5
    endloop
  endfacet
  facet normal 0.0249984 -3.06132e-018 -0.999687
    outer loop
      vertex 22.4955 -4.69 1.45
      vertex 22.4955 -1.09 1.45
      vertex 24.495 -4.89 1.5
    endloop
  endfacet
  facet normal 0.0249984 -3.06132e-018 -0.999687
    outer loop
      vertex 24.495 -4.89 1.5
      vertex 22.4955 -1.09 1.45
      vertex 24.495 -0.89 1.5
    endloop
  endfacet
  facet normal 0.0995284 0.995035 8.4903e-017
    outer loop
      vertex 22.4955 -4.69 0.55
      vertex 22.4955 -4.69 1.45
      vertex 24.495 -4.89 0.5
    endloop
  endfacet
  facet normal 0.0995284 0.995035 8.4903e-017
    outer loop
      vertex 24.495 -4.89 0.5
      vertex 22.4955 -4.69 1.45
      vertex 24.495 -4.89 1.5
    endloop
  endfacet
  facet normal 0.0249984 -3.06132e-018 0.999687
    outer loop
      vertex 22.4955 -1.09 0.55
      vertex 22.4955 -4.69 0.55
      vertex 24.495 -4.89 0.5
    endloop
  endfacet
  facet normal 0.0249984 -3.06132e-018 0.999687
    outer loop
      vertex 24.495 -0.89 0.5
      vertex 22.4955 -1.09 0.55
      vertex 24.495 -4.89 0.5
    endloop
  endfacet
  facet normal 1.24812e-017 -0.125333 0.992115
    outer loop
      vertex -24.5 5.18795 66.9327
      vertex -22.5 5.18795 66.9327
      vertex -22.5 5.6614 66.9925
    endloop
  endfacet
  facet normal 1.24812e-017 -0.125333 0.992115
    outer loop
      vertex -24.5 5.6614 66.9925
      vertex -24.5 5.18795 66.9327
      vertex -22.5 5.6614 66.9925
    endloop
  endfacet
  facet normal -1.22461e-016 -1 1.36718e-016
    outer loop
      vertex -22.5 2.11 63.2
      vertex -22.5 2.11 63.3589
      vertex -24.5 2.11 63.3589
    endloop
  endfacet
  facet normal -1.22461e-016 -1 1.36718e-016
    outer loop
      vertex -24.5 2.11 63.2
      vertex -22.5 2.11 63.2
      vertex -24.5 2.11 63.3589
    endloop
  endfacet
  facet normal 2.47655e-017 -0.24869 0.968583
    outer loop
      vertex -24.5 4.72574 66.814
      vertex -22.5 4.72574 66.814
      vertex -22.5 5.18795 66.9327
    endloop
  endfacet
  facet normal 2.47655e-017 -0.24869 0.968583
    outer loop
      vertex -24.5 5.18795 66.9327
      vertex -24.5 4.72574 66.814
      vertex -22.5 5.18795 66.9327
    endloop
  endfacet
  facet normal 3.66594e-017 -0.368125 0.929776
    outer loop
      vertex -24.5 4.28204 66.6383
      vertex -22.5 4.28204 66.6383
      vertex -22.5 4.72574 66.814
    endloop
  endfacet
  facet normal 3.66594e-017 -0.368125 0.929776
    outer loop
      vertex -24.5 4.72574 66.814
      vertex -24.5 4.28204 66.6383
      vertex -22.5 4.72574 66.814
    endloop
  endfacet
  facet normal 4.7975e-017 -0.481754 0.876307
    outer loop
      vertex -24.5 3.86386 66.4084
      vertex -22.5 3.86386 66.4084
      vertex -22.5 4.28204 66.6383
    endloop
  endfacet
  facet normal 4.7975e-017 -0.481754 0.876307
    outer loop
      vertex -24.5 4.28204 66.6383
      vertex -24.5 3.86386 66.4084
      vertex -22.5 4.28204 66.6383
    endloop
  endfacet
  facet normal 5.85341e-017 -0.587786 0.809017
    outer loop
      vertex -24.5 3.47779 66.1279
      vertex -22.5 3.47779 66.1279
      vertex -22.5 3.86386 66.4084
    endloop
  endfacet
  facet normal 5.85341e-017 -0.587786 0.809017
    outer loop
      vertex -24.5 3.86386 66.4084
      vertex -24.5 3.47779 66.1279
      vertex -22.5 3.86386 66.4084
    endloop
  endfacet
  facet normal 6.81698e-017 -0.684546 0.728969
    outer loop
      vertex -24.5 3.12992 65.8013
      vertex -22.5 3.12992 65.8013
      vertex -22.5 3.47779 66.1279
    endloop
  endfacet
  facet normal 6.81698e-017 -0.684546 0.728969
    outer loop
      vertex -24.5 3.47779 66.1279
      vertex -24.5 3.12992 65.8013
      vertex -22.5 3.47779 66.1279
    endloop
  endfacet
  facet normal 7.67307e-017 -0.770513 0.637424
    outer loop
      vertex -24.5 2.82574 65.4336
      vertex -22.5 2.82574 65.4336
      vertex -22.5 3.12992 65.8013
    endloop
  endfacet
  facet normal 7.67307e-017 -0.770513 0.637424
    outer loop
      vertex -24.5 3.12992 65.8013
      vertex -24.5 2.82574 65.4336
      vertex -22.5 3.12992 65.8013
    endloop
  endfacet
  facet normal 8.40816e-017 -0.844329 0.535826
    outer loop
      vertex -24.5 2.57004 65.0307
      vertex -22.5 2.57004 65.0307
      vertex -22.5 2.82574 65.4336
    endloop
  endfacet
  facet normal 8.40816e-017 -0.844329 0.535826
    outer loop
      vertex -24.5 2.82574 65.4336
      vertex -24.5 2.57004 65.0307
      vertex -22.5 2.82574 65.4336
    endloop
  endfacet
  facet normal 9.01062e-017 -0.904827 0.42578
    outer loop
      vertex -24.5 2.36685 64.5989
      vertex -22.5 2.36685 64.5989
      vertex -22.5 2.57004 65.0307
    endloop
  endfacet
  facet normal 9.01062e-017 -0.904827 0.42578
    outer loop
      vertex -24.5 2.57004 65.0307
      vertex -24.5 2.36685 64.5989
      vertex -22.5 2.57004 65.0307
    endloop
  endfacet
  facet normal 9.471e-017 -0.951057 0.309017
    outer loop
      vertex -24.5 2.21938 64.145
      vertex -22.5 2.21938 64.145
      vertex -22.5 2.36685 64.5989
    endloop
  endfacet
  facet normal 9.471e-017 -0.951057 0.309017
    outer loop
      vertex -24.5 2.36685 64.5989
      vertex -24.5 2.21938 64.145
      vertex -22.5 2.36685 64.5989
    endloop
  endfacet
  facet normal 9.78201e-017 -0.982287 0.187381
    outer loop
      vertex -24.5 2.12996 63.6763
      vertex -22.5 2.12996 63.6763
      vertex -22.5 2.21938 64.145
    endloop
  endfacet
  facet normal 9.78201e-017 -0.982287 0.187381
    outer loop
      vertex -24.5 2.21938 64.145
      vertex -24.5 2.12996 63.6763
      vertex -22.5 2.21938 64.145
    endloop
  endfacet
  facet normal 9.93875e-017 -0.998027 0.0627903
    outer loop
      vertex -24.5 2.11 63.3589
      vertex -22.5 2.11 63.3589
      vertex -22.5 2.12996 63.6763
    endloop
  endfacet
  facet normal 9.93875e-017 -0.998027 0.0627903
    outer loop
      vertex -24.5 2.12996 63.6763
      vertex -24.5 2.11 63.3589
      vertex -22.5 2.12996 63.6763
    endloop
  endfacet
  facet normal 1 -1.22461e-016 -2.48665e-033
    outer loop
      vertex 22.4955 6.45 60.8
      vertex 22.4955 6.45 57.2
      vertex 22.4955 7.35 57.2
    endloop
  endfacet
  facet normal 1 -1.22461e-016 -2.48665e-033
    outer loop
      vertex 22.4955 7.35 60.8
      vertex 22.4955 6.45 60.8
      vertex 22.4955 7.35 57.2
    endloop
  endfacet
  facet normal 1 -1.22461e-016 -2.48665e-033
    outer loop
      vertex 22.4955 0.66 42.8
      vertex 22.4955 0.66 39.2
      vertex 22.4955 1.56 39.2
    endloop
  endfacet
  facet normal 1 -1.22461e-016 -2.48665e-033
    outer loop
      vertex 22.4955 1.56 42.8
      vertex 22.4955 0.66 42.8
      vertex 22.4955 1.56 39.2
    endloop
  endfacet
  facet normal 1 -1.22461e-016 -2.48665e-033
    outer loop
      vertex 22.4955 6.45 9.8
      vertex 22.4955 6.45 6.2
      vertex 22.4955 7.35 6.2
    endloop
  endfacet
  facet normal 1 -1.22461e-016 -2.48665e-033
    outer loop
      vertex 22.4955 7.35 9.8
      vertex 22.4955 6.45 9.8
      vertex 22.4955 7.35 6.2
    endloop
  endfacet
  facet normal 1 -1.22461e-016 -2.48665e-033
    outer loop
      vertex 22.4955 0.66 9.8
      vertex 22.4955 0.66 6.2
      vertex 22.4955 1.56 6.2
    endloop
  endfacet
  facet normal 1 -1.22461e-016 -2.48665e-033
    outer loop
      vertex 22.4955 1.56 9.8
      vertex 22.4955 0.66 9.8
      vertex 22.4955 1.56 6.2
    endloop
  endfacet
  facet normal 1 -1.22461e-016 -2.48665e-033
    outer loop
      vertex 22.4955 -4.69 1.45
      vertex 22.4955 -4.69 0.55
      vertex 22.4955 -1.09 0.55
    endloop
  endfacet
  facet normal 1 -1.22461e-016 -2.48665e-033
    outer loop
      vertex 22.4955 -1.09 1.45
      vertex 22.4955 -4.69 1.45
      vertex 22.4955 -1.09 0.55
    endloop
  endfacet
endsolid OpenSCAD_Model
